<?xml version="1.0" encoding="UTF-8" standalone="no"?>
<!-- Copyright (c) Microsoft Corporation. All rights reserved. Licensed under the MIT license. -->

<svg version="1.1" viewBox="0 0 443.71777 138.86914" xmlns="http://www.w3.org/2000/svg" xmlns:cc="http://creativecommons.org/ns#" xmlns:dc="http://purl.org/dc/elements/1.1/" xmlns:rdf="http://www.w3.org/1999/02/22-rdf-syntax-ns#"><title>Rush Lockfile Explorer</title><metadata id="metadata4142"><rdf:RDF><cc:Work rdf:about=""><dc:format>image/svg+xml</dc:format><dc:type rdf:resource="http://purl.org/dc/dcmitype/StillImage"/><dc:title>Rush Lockfile Explorer</dc:title><cc:license rdf:resource="https://opensource.org/licenses/MIT"/><dc:creator><cc:Agent><dc:title>https://github.com/octogonz</dc:title></cc:Agent></dc:creator><dc:description>Copyright (c) Microsoft Corporation. All rights reserved. Licensed under the MIT license.</dc:description></cc:Work></rdf:RDF></metadata><g transform="translate(0,-11.787598)"><g fill="#68b856"><path d="m88.458313 40.270081c14.681577 0 26.583377-4.947937 26.583377-11.051575s-11.9018-11.051575-26.583377-11.051575c-5.336548 0-10.301697 0.656189-14.465637 1.781555-2.608216-4.176025-10.770508-7.226013-20.450989-7.226013-11.741821 0-21.262329 4.484375-21.327332 10.026917-10.863403 0.08997-19.619018 4.591308-19.619018 10.13977 0 5.604675 8.930298 10.148132 19.94635 10.148132 7.401367 0 13.846619-2.055847 17.289063-5.101623 2.248229 2.84021 7.407653 4.828491 13.41925 4.828491 5.286255 0 9.903381-1.541443 12.472656-3.843323 3.782105 0.859864 8.121094 1.349244 12.735657 1.349244z"/><path d="m114.68896 54.225586c-0.91564-3.778198-5.90637-6.6698-11.94372-6.6698-6.309388 0-11.48639 3.155762-12.051514 7.183716-5.044556 1.088562-8.698731 4.272583-8.698731 8.034485 0 4.659912 5.604004 8.437561 12.516785 8.437561 2.65155 0 5.106384-0.559387 7.13037-1.507569 2.6994 2.71991 7.34033 4.518494 12.62085 4.518494 8.34045 0 15.10175-4.479614 15.10175-10.005554 0-5.430603-6.53412-9.840515-14.67579-9.991333z"/><path d="m49.349426 64.199829c-0.634277-5.419495-7.137878-9.682312-15.082458-9.682312-6.597534 0-12.194153 2.943482-14.270874 7.043579-0.127442-0.0014-0.25116-0.01111-0.379212-0.01111-10.834106 2e-6 -19.616882 5.079592-19.616882 11.345583s8.7827759 11.345581 19.616882 11.345581c4.838806 0 9.260926-1.018067 12.681641-2.697754 3.091125 0.92157 6.728638 1.462769 10.638489 1.462769 11.141845 0 20.174072-4.323365 20.174072-9.656434 0-4.25885-5.767212-7.866394-13.761658-9.149902z"/><path d="m93.598633 120.22247v-3.75384c0-0.69971-0.567261-1.26697-1.267029-1.26697h-55.549316c-0.699768 0-1.267029 0.56726-1.267029 1.26697v3.75384z"/></g><g fill="#ab9e8e"><path d="m88.291687 83.26416c-0.0081-0.02167-0.02136-0.03839-0.02978-0.05975-0.813787-2.879947-2.275335-6.141544-4.636907-9.898624-3.169678-5.042663-6.962036-9.545776-11.054382-13.583191-0.04156-0.04742-0.0661-0.09033-0.112305-0.138977-1.993164-2.099243 8.904419-4.326416 12.003784-18.452087-1.844726-0.114929-3.662048-0.296814-5.40863-0.565857-3.776673 10.460632-12.672058 13.30719-14.033936 12.450378-6.075439-4.847107-12.396972-8.779663-18.180176-11.936889-1.918396 0.950744-4.151062 1.695068-6.595581 2.198242 20.063477 11.801941 36.259461 31.327942 35.325806 45.414428-0.843262 5.000184-20.286743 8.365662-31.297485-4.718505-0.443665 0.01337-0.883606 0.03284-1.335083 0.03284-2.395996 0-4.752198-0.222413-6.996643-0.612671 12.48645 22.457213 36.44104 15.371154 32.860534 19.295163-5.053466 4.85974-12.261718 8.19403-19.425354 11.513h34.610047c-3.838013-7.05267 0.804504-11.3847 3.479248-17.691345 1.990112-4.106628 18.512386-4.468445 22.166626-21.767761-2.03351-0.415467-3.93207-1.085816-5.57239-2.001465-2.18414 11.159607-14.616331 13.602661-15.767393 10.523071z"/><path d="m38.890259 140.95551c0 0.6997 0.567261 1.26696 1.267029 1.26696h7.466003c0.699707 0 1.266968-0.56726 1.266968-1.26696v-3.70527h-10z"/><path d="m32.221766 121.22249h64.670359c0.786106 0 1.382479 0.70843 1.248452 1.48302l-2.161782 12.49378c-0.105094 0.60737-0.632053 1.05098-1.248452 1.05098h-60.346794c-0.6164 0-1.143359-0.44361-1.248452-1.05098l-2.161783-12.49378c-0.134027-0.77459 0.462346-1.48302 1.248452-1.48302z"/><path d="m80.223633 137.25024v3.70527c0 0.6997 0.567261 1.26696 1.266968 1.26696h7.466003c0.699768 0 1.267029-0.56726 1.267029-1.26696v-3.70527z"/></g><g fill="#ab9e8e"><path d="m173.95312 121.30273c0.50879 0 0.93311 0.50928 0.84815 1.01807-1.27246 8.22949-8.39893 14.93164-19.93701 14.93164-14.0835 0-21.71875-9.41699-21.71875-22.73681 0-13.82862 8.05957-22.991216 21.37939-22.991216 13.4043 0 21.125 8.992676 21.46436 23.754886 0 0.50879-0.50928 1.01806-1.01807 1.01806h-31.56006c0.42432 9.33203 4.2417 13.74366 11.53809 13.74366 5.25976 0 8.73827-2.46045 10.01074-7.72022 0.16992-0.59375 0.67871-1.01807 1.27295-1.01807zm-19.34326-22.651851c-6.1084 0-9.75683 3.732911-10.85937 10.774411h21.20947c-0.42432-5.68408-3.73291-10.774411-10.3501-10.774411z"/><path d="m205.25537 136.23437c-0.59375 0-1.18799-0.33935-1.52734-0.9331l-8.82324-15.94971-9.24708 16.03467c-0.33984 0.50879-0.93359 0.84814-1.52734 0.84814h-8.65332c-0.42432 0-0.76367-0.50927-0.50928-0.84814l13.48926-21.88867-12.55615-20.106935c-0.16943-0.339355 0.085-0.848145 0.50928-0.848145h9.41699c0.59375 0 1.18799 0.339356 1.52685 0.848145l8.48438 14.762205 7.97461-14.677244c0.33935-0.59375 0.9331-0.933106 1.52734-0.933106h8.31299c0.4248 0 0.76367 0.50879 0.50977 0.848145l-12.04688 20.021975 13.14941 21.97363c0.25489 0.33887-0.085 0.84814-0.50878 0.84814z"/><path d="m243.1748 137.08252c-5.5996 0-10.01171-2.12061-12.98046-6.19287l0.2539 18.74951c0 0.50879-0.50879 1.01758-1.01758 1.01758h-8.65429c-0.50879 0-1.01758-0.50879-1.01758-1.01758l0.42383-31.72998-0.42383-24.348633c0-0.509277 0.50879-1.018067 1.01758-1.018067h8.39941c0.50879 0 1.01856 0.50879 1.01856 1.018067l-0.16993 4.92041c2.96875-4.241699 7.55079-6.787109 13.4043-6.787109 12.04688 0 18.49512 9.841312 18.49512 22.567382 0 12.64063-7.04199 22.82129-18.74903 22.82129zm-2.71484-7.2959c7.38086 0 11.02832-5.59961 11.02832-14.93164 0-9.92627-3.56348-15.780273-10.85937-15.780273-6.78711 0-10.77442 5.090823-10.85938 14.931643-0.085 10.09619 3.7334 15.78027 10.69043 15.78027z"/><path d="m270.14941 136.23437c-0.50879 0-1.01855-0.50927-1.01855-1.01806l0.50976-28.84522-0.50976-28.505856c0-0.509277 0.50976-1.018066 1.01855-1.018066h8.39844c0.50977 0 1.01856 0.508789 1.01856 1.018066l-0.50879 28.505856 0.50879 28.84522c0 0.50879-0.50879 1.01806-1.01856 1.01806z"/><path d="m308.40918 137.25244c-13.74414 0-21.63379-8.9082-21.63379-22.73681 0-13.82862 7.88965-22.991216 21.63379-22.991216s21.46484 8.907716 21.46484 22.736816c0 13.91357-7.7207 22.99121-21.46484 22.99121zm0-7.21142c7.46582 0 10.94434-5.09034 10.94434-15.52539 0-10.3501-3.56348-15.77979-11.0293-15.77979-7.46582 0.08447-11.02832 5.51416-11.02832 15.86475 0 10.26513 3.64746 15.44043 11.11328 15.44043z"/><path d="m337.76074 136.23437c-0.50976 0-1.01855-0.50927-1.01855-1.01806l0.42383-21.04004-0.42383-20.615723c0-0.509277 0.50879-1.018067 1.01855-1.018067h8.31348c0.50879 0 1.01855 0.50879 0.93359 1.018067l-0.25488 6.787113c3.22461-5.429691 8.99316-8.144535 15.27148-8.144535 0.67871 0 1.35743 0.08447 1.95118 0.169434 0.59375 0.08496 1.01757 0.59375 1.01757 1.187988v5.938476c0 0.509277-0.42382 0.933107-1.01757 0.933107-0.50879-0.0845-1.1875-0.0845-1.86622-0.0845-8.14453 0-14.50781 4.66601-15.10156 14.42236l0.16992 20.44629c0 0.50879-0.50976 1.01806-1.01855 1.01806z"/><path d="m406.90137 121.30273c0.50879 0 0.93359 0.50928 0.84863 1.01807-1.27246 8.22949-8.39941 14.93164-19.93751 14.93164-14.083 0-21.71874-9.41699-21.71874-22.73681 0-13.82862 8.05957-22.991216 21.37988-22.991216 13.4043 0 21.12403 8.992676 21.46386 23.754886 0 0.50879-0.50878 1.01806-1.01854 1.01806h-31.55958c0.42383 9.33203 4.24219 13.74366 11.53809 13.74366 5.25977 0 8.73828-2.46045 10.01074-7.72022 0.16992-0.59375 0.67871-1.01807 1.27246-1.01807zm-19.34375-22.651851c-6.1084 0-9.75586 3.732911-10.85938 10.774411h21.20996c-0.42383-5.68408-3.73242-10.774411-10.35058-10.774411z"/><path d="m416.48535 136.23437c-0.50976 0-1.01855-0.50927-1.01855-1.01806l0.42382-21.04004-0.42382-20.615723c0-0.509277 0.50879-1.018067 1.01855-1.018067h8.31348c0.50879 0 1.01855 0.50879 0.93359 1.018067l-0.25488 6.787113c3.22461-5.429691 8.99316-8.144535 15.27148-8.144535 0.67871 0 1.35743 0.08447 1.95118 0.169434 0.59375 0.08496 1.01757 0.59375 1.01757 1.187988v5.938476c0 0.509277-0.42382 0.933107-1.01757 0.933107-0.50879-0.0845-1.1875-0.0845-1.86622-0.0845-8.14453 0-14.50781 4.66601-15.10156 14.42236l0.16992 20.44629c0 0.50879-0.50976 1.01806-1.01855 1.01806z"/></g><g fill="#ab9e8e"><path d="m156.44092 72.10791c-0.50928 0-1.01807-0.508789-1.01807-1.018066l0.50879-28.845215-0.50879-28.505859c0-0.50879 0.50879-1.018067 1.01807-1.018067h8.39892c0.50928 0 1.01807 0.509277 1.01807 1.018067l-0.50879 28.505859 0.50879 28.845215c0 0.509277-0.50879 1.018066-1.01807 1.018066z"/><path d="m194.70068 73.125977c-13.74365 0-21.63379-8.908204-21.63379-22.736817s7.89014-22.991211 21.63379-22.991211c13.74366 0 21.46436 8.908203 21.46436 22.736817 0 13.913574-7.7207 22.991211-21.46436 22.991211zm0-7.211426c7.46582 0 10.94434-5.090332 10.94434-15.525391 0-10.350586-3.56348-15.780273-11.0293-15.780273-7.46582 0.08496-11.02881 5.514648-11.02881 15.865234 0 10.265625 3.64795 15.44043 11.11377 15.44043z"/><path d="m243.05566 73.125977c-13.49023 0-21.37988-8.908204-21.37988-22.736817s7.88965-22.991211 21.63379-22.991211c10.85938 0 17.81641 6.19336 18.91895 15.355469 0.085 0.509277-0.42383 1.018555-0.93262 1.018555h-7.38086c-0.59473 0-1.10352-0.424317-1.18848-1.018555-1.10254-5.51416-4.9209-8.05957-9.41699-8.05957-7.55078 0-11.11328 5.429687-11.11328 15.610351 0 10.52002 3.64746 15.525391 11.11328 15.610352 5.25977 0.08496 9.07813-3.223633 9.8418-9.416992 0.084-0.59375 0.50879-1.018067 1.10254-1.018067h7.63574c0.50879 0 1.01758 0.509278 0.93262 1.018067-1.01758 9.671875-8.56836 16.628418-19.76661 16.628418z"/><path d="m291.49414 63.878418-7.2959-12.216797-4.75097 5.68457 0.16992 13.743653c0 0.509277-0.50977 1.018066-1.01856 1.018066h-8.39843c-0.50977 0-1.01856-0.508789-1.01856-1.018066l0.50879-28.590821-0.50879-28.760253c0-0.50879 0.50879-1.018067 1.01856-1.018067h8.39843c0.50879 0 1.01856 0.509277 1.01856 1.018067l-0.42481 28.59082 0.085 3.647949 14.42286-16.79834c0.42382-0.423828 1.10253-0.763183 1.69628-0.763183h9.33301c0.42383 0 0.59375 0.424316 0.33887 0.763183l-13.65918 15.101563 15.78027 26.978515c0.25489 0.339844-0.085 0.848633-0.50879 0.848633h-9.92675c-0.59375 0-1.1875-0.339355-1.44239-0.933105z"/><path d="m326.19043 52.679687 0.42383 18.410157c0 0.509277-0.50879 1.018066-1.01758 1.018066h-8.82324c-0.50879 0-1.01856-0.508789-1.01856-1.018066l0.42481-18.410157v-16.628417h-5.76953c-0.50879 0-1.01758-0.50879-1.01758-1.018067v-5.599121c0-0.509277 0.50879-1.018066 1.01758-1.018066h5.76953v-3.309082c0-9.756348 6.44726-13.319336 12.89551-13.319336 2.20507 0 4.66601 0.254394 6.44726 0.59375 0.59375 0.08496 1.01856 0.59375 1.01856 1.1875v5.514648c0 0.509277-0.50977 0.848633-1.01856 0.763672-1.10254-0.254395-2.54492-0.424316-4.15723-0.424316-3.13867 0-5.1748 1.696777-5.1748 6.617675v2.375489h9.33203c0.50879 0 1.01856 0.508789 1.01856 1.018066v5.599121c0 0.509277-0.50977 1.018067-1.01856 1.018067h-9.33203z"/><path d="m344.68262 72.10791c-0.50879 0-1.01856-0.508789-1.01856-1.018066l0.42481-21.125-0.42481-20.530762c0-0.509277 0.50977-1.018066 1.01856-1.018066h8.65332c0.50879 0 1.01855 0.508789 1.01855 1.018066l-0.4248 20.530762 0.4248 21.125c0 0.509277-0.50976 1.018066-1.01855 1.018066zm0.16992-48.442871c-0.50977 0-1.01856-0.509277-1.01856-1.018066v-8.059571c0-0.509277 0.50879-1.018554 1.01856-1.018554h8.31348c0.50976 0 1.01855 0.509277 1.01855 1.018554v8.059571c0 0.508789-0.50879 1.018066-1.01855 1.018066z"/><path d="m364.36328 72.10791c-0.50879 0-1.01855-0.508789-1.01855-1.018066l0.50976-28.845215-0.50976-28.505859c0-0.50879 0.50976-1.018067 1.01855-1.018067h8.39942c0.50878 0 1.01757 0.509277 1.01757 1.018067l-0.50879 28.505859 0.50879 28.845215c0 0.509277-0.50879 1.018066-1.01757 1.018066z"/><path d="m421.79687 57.17627c0.50879 0 0.93262 0.508789 0.84864 1.018066-1.27344 8.229492-8.39942 14.931641-19.9375 14.931641-14.08301 0-21.71875-9.416993-21.71875-22.736817 0-13.828613 8.05957-22.991211 21.3789-22.991211 13.40528 0 21.125 8.992676 21.46485 23.754883 0 0.508789-0.50879 1.018066-1.01856 1.018066h-31.55957c0.42383 9.332032 4.24219 13.743653 11.53809 13.743653 5.25976 0 8.73828-2.459961 10.01074-7.720215 0.16992-0.59375 0.67871-1.018066 1.27246-1.018066zm-19.34375-22.651856c-6.10839 0-9.75585 3.73291-10.85937 10.774414h21.20996c-0.42383-5.684082-3.73242-10.774414-10.35059-10.774414z"/></g></g></svg>
