<?xml version="1.0" encoding="UTF-8"?>
<svg width="408.50967" height="352.36246" version="1.1" viewBox="0 0 408.50967 352.36247" xmlns="http://www.w3.org/2000/svg" xmlns:cc="http://creativecommons.org/ns#" xmlns:dc="http://purl.org/dc/elements/1.1/" xmlns:rdf="http://www.w3.org/1999/02/22-rdf-syntax-ns#"><title>404 - PAGE NOT FOUND</title><metadata><rdf:RDF><cc:Work rdf:about=""><dc:format>image/svg+xml</dc:format><dc:type rdf:resource="http://purl.org/dc/dcmitype/StillImage"/><dc:title>404 - PAGE NOT FOUND</dc:title></cc:Work></rdf:RDF></metadata><defs><style>.a,.c{fill:#fff;}.b{fill:#108938;}.c{stroke:#bcbcbc;stroke-miterlimit:10;stroke-width:10px;}.d{fill:#bcbcbc;}</style></defs><rect class="a" transform="rotate(-12.31332)" x="-9.2244186" y="236.72571" width="108" height="108" fill="#fff"/><path class="b" d="m134.85119 182.98348-130.9174816 28.57654a5 5 0 0 0-3.81869001 5.95126l28.57649961 130.91747a5 5 0 0 0 5.95127 3.8187l130.917472-28.57651a5 5 0 0 0 3.81869-5.95126l-28.5765-130.91747a5 5 0 0 0-5.95126-3.81873zm9.45784 104.28835-4.4848 13.96517-20.9191-8.86784 6.89019 21.55778-15.02817 3.28033-2.79157-22.45243-15.249192 16.76264-9.96811-10.8104 18.199432-13.60027-22.211302-4.77947 4.55671-13.98087 20.847192 8.88354-6.818342-21.57346 15.028172-3.28034 2.71972 22.46811 15.3211-16.77831 9.8962 10.82611-18.12747 13.58457z" fill="#108938"/><g fill="#fff" stroke="#bcbcbc" stroke-miterlimit="10" stroke-width="10px"><path class="c" d="m231.51542 128.36102a52.658 52.658 0 0 0 21.82059 3.6457 39.86373 39.86373 0 0 0 74.55688 4.71838 49.71231 49.71231 0 1 0 32.40282-91.719324 56.14045 56.14045 0 0 0-98.65487-17.58791 52.86817 52.86817 0 0 0-30.12543 100.943154z"/><circle class="c" cx="224.88144" cy="179.10568" r="18.76322"/><circle class="c" cx="188.0508" cy="213.50877" r="10.94906"/></g><path class="d" d="m294.08712 100.92601h-4e-3a9.87874 9.87874 0 0 0-7.31193 2.16434 9.73078 9.73078 0 0 0-3.62978 6.75193 10.18676 10.18676 0 0 0 2.15343 7.50466 9.72343 9.72343 0 0 0 6.79048 3.70541q0.51818 0.0513 1.02544 0.0509a9.67859 9.67859 0 0 0 6.37812-2.38761 10.22418 10.22418 0 0 0 3.56869-6.89157 9.98455 9.98455 0 0 0-8.97082-10.89807z" fill="#bcbcbc"/><path class="d" d="m318.77124 41.370246a23.59351 23.59351 0 0 0-16.11911-7.99846c-6.485-0.64509-12.16715 0.71417-16.89729 4.04141-4.90467 3.45087-7.64937 7.78683-8.15773 12.88787a12.7955 12.7955 0 0 0 2.05671 8.853 10.04106 10.04106 0 0 0 7.3941 4.4065 9.21668 9.21668 0 0 0 7.01084-2.112 9.504 9.504 0 0 0 3.34469-6.47848c0.20946-2.10689-0.26181-5.30394-3.71414-8.58682-0.11127-0.10327-0.20582-0.19709-0.28582-0.28072a6.27139 6.27139 0 0 1 1.20872-0.8909 8.154 8.154 0 0 1 5.13813-0.90909 7.38143 7.38143 0 0 1 5.47049 3.12579 10.427 10.427 0 0 1 1.74107 7.62247 21.435 21.435 0 0 1-1.824 6.96284 26.337 26.337 0 0 1-4.75922 6.62029c-4.44141 4.75632-5.76358 6.60066-6.3723 7.57593a25.31182 25.31182 0 0 0-2.64143 6.36575 59.3509 59.3509 0 0 0-1.744 10.28353l-0.36873 3.70542 10.0959 1.00508 0.43636-3.621c0.704-5.83776 1.76144-8.21883 2.33016-9.12064 0.59345-0.94035 2.59852-3.25887 9.38536-8.23264 4.7665-3.54688 7.66247-6.28794 9.12572-8.64064a23.83359 23.83359 0 0 0 3.34252-10.24935 20.95225 20.95225 0 0 0-5.197-16.33514z" fill="#bcbcbc"/></svg>
