<?xml version="1.0" encoding="UTF-8" standalone="no"?>
<!-- Copyright (c) Microsoft Corporation. All rights reserved. Licensed under the MIT license. -->

<svg xmlns="http://www.w3.org/2000/svg" xmlns:cc="http://creativecommons.org/ns#" xmlns:dc="http://purl.org/dc/elements/1.1/" xmlns:rdf="http://www.w3.org/1999/02/22-rdf-syntax-ns#" width="204.45588" height="71.26501" viewBox="0 0 204.45588 71.26501"><title id="title4200">Heft</title><metadata id="metadata4142"><rdf:RDF><cc:Work rdf:about=""><dc:format>image/svg+xml</dc:format><dc:type rdf:resource="http://purl.org/dc/dcmitype/StillImage" /><dc:title>Heft</dc:title><cc:license rdf:resource="https://opensource.org/licenses/MIT" /><dc:creator><cc:Agent><dc:title>https://github.com/octogonz</dc:title></cc:Agent></dc:creator><dc:rights><cc:Agent><dc:title /></cc:Agent></dc:rights><dc:description>Copyright (c) Microsoft Corporation. All rights reserved. Licensed under the MIT license.</dc:description></cc:Work></rdf:RDF></metadata><defs><style>.a{fill:#db714a;}.b{fill:#75706f;}</style></defs><path class="a" d="M228.99363,414.85837h-15.9537v15.4395h-9.83568V389.63432h9.83568v15.31253h16.068V389.63432h9.83511v40.66355H229.108Z" transform="translate(-203.20425 -359.66827)" /><path class="a" d="M243.96662,414.223c0-9.65759,6.5759-16.58279,15.725-16.58279,10.40675,0,17.09755,8.32357,15.78191,19.95059l-21.72929-.06319a6.06427,6.06427,0,0,0,6.176,5.08215,8.05373,8.05373,0,0,0,6.69079-3.04952l7.26186,4.63863c-2.45892,3.68493-7.31931,6.73446-13.95265,6.73446C250.02775,430.93329,243.96662,423.89778,243.96662,414.223Zm22.186-3.68494a6.04382,6.04382,0,0,0-6.28979-5.1419,6.1081,6.1081,0,0,0-6.11858,5.1419Z" transform="translate(-203.20425 -359.66827)" /><path class="a" d="M283.48115,430.29787V407.23342h-3.832v-8.95783h3.832c0-9.9753,4.57429-13.15236,15.89567-12.64392l.1149,8.38677c-5.66126-.509-6.97575,1.27082-6.97575,4.25715h6.28978v8.95783h-6.00482v23.1288Z" transform="translate(-203.20425 -359.66827)" /><path class="a" d="M307.47288,414.3505v-7.18028H303.642v-8.89463h3.83087v-4.95691l9.49327-4.57371v9.53062h8.23395v8.89463h-8.23395v7.18028c0,5.019.91463,7.68815,8.23395,6.73446v9.5312C312.647,432.26846,307.47288,427.03693,307.47288,414.3505Z" transform="translate(-203.20425 -359.66827)" /><path class="b" d="M378.59822,369.97348c-.3897-.38969.25792-3.07308,1.08559-4.81555,1.05775-2.22684,1.0555-5.40854,1.28043-5.4836.51071-.17043,1.9656,3.30591,2.1155,3.98048.22269,1.00208.67351,5.1982-.67178,7.3483Z" transform="translate(-203.20425 -359.66827)" /><path class="a" d="M373.71575,368.7295c-5.06171.26935-7.94344-.44953-13.83077,2.53173,1.67853-.22553,9.40965.48478,11.07567,1.24888Z" transform="translate(-203.20425 -359.66827)" /><path class="a" d="M375.22546,369.05659c3.94763-1.9358,12.70968-3.572,16.10044-.60127a11.56228,11.56228,0,0,0-5.38056-.15439,5.07324,5.07324,0,0,1,3.702,2.1085c-3.45712-1.03708-4.96022-.429-6.20467.15031C382.67374,370.9177,375.22546,369.05659,375.22546,369.05659Z" transform="translate(-203.20425 -359.66827)" /><path class="b" d="M407.63315,392.67706a14.85593,14.85593,0,0,0-1.82373-2.55328c-.61292-.46326-2.19226-1.58771-3.86213-3.00385a62.17743,62.17743,0,0,1-6.69433-6.9732c-1.30249-1.61548-.873-3.17047-2.25287-4.72034-.43811-.49213-1.93579-.9682-3.34717-1.974-.41675-.297-.53369-.686-.96551-1.00842a50.60851,50.60851,0,0,0-5.86524-3.97467,7.36816,7.36816,0,0,0-3.71283-.2077c-.39422-.02778-.65576-.06427-.76831-.19989a38.95807,38.95807,0,0,1-.64581-7.59809c-.50421-.11383-.95044.32788-1.2605.74152a23.9693,23.9693,0,0,0-3.47516,7.36938c-1.45343,1.27362-5.58239,3.66266-7.83026,7.121a155.05583,155.05583,0,0,0-10.0711,19.91675c-1.28272,3.46332-4.23785,23.28883-5.66388,31.34175-.14081.79535,15.43279,3.9793,15.43279,3.9793H395.21c-.54523-2.71649-1.33459-5.41284-3.18262-7.42768-.79754-.86956-1.759-1.56988-2.63171-2.364-3.85309-3.50623-5.78089-8.6427-7.01087-13.705-.74054-3.04773-1.28607-6.15649-2.033-9.20031a52.17874,52.17874,0,0,0,6.41309-.96143,17.32921,17.32921,0,0,1,5.74176.8092c1.88812.57929,3.49732.944,4.68457,1.38031.499.18335,1.072,2.239,2.28864,2.97529,1.29022.78076,2.46746-.19312,3.86212-.32184.969-.08948,1.33026-1.05139,1.7594-1.28742a3.713,3.713,0,0,0,2.05975-1.52337c.78912-1.18366.06439-2.51038,0-3.73334C407.13925,395.15784,407.79977,393.05871,407.63315,392.67706Z" transform="translate(-203.20425 -359.66827)" /><path class="a" d="M353.64688,374.64331c2.385.53607,4.80414,2.20746,7.21515,1.80377-1.67725,1.18933-7.468,2.91486-13.73316,3.98761a32.01682,32.01682,0,0,0,4.18811.70972c.02308.06921-5.00347,1.43591-5.1322,4.01068,2.31726-2.66058,6.38452-.57068,8.81494-2.06909-3.50415,2.76117-7.46563,7.11493-13.2528,3.43219.476,1.47809,4.03344,3.13159,5.58673,3.28186-3.45728.78918-6.62012,3.40716-6.77045,5.48651,1.20251-2.06683,2.96246-2.27979,4.11487-1.27765-.73279.26306-3.50733,2.45514-3.50733,4.92279,2.67432-2.68689,5.81214-1.60333,7.74122-2.49274.12524,1.17749-5.18586,5.82477-10.497,7.77881,4.25891.25055,4.45336-.87665,7.21514-1.30267-2.70568,2.11688-2.10443,10.13373-7.31536,9.43225,2.50525,1.80377,5.68933,1.25555,7.11493.8017-1.35285,3.30688-2.65558,7.165-5.41138,11.12329a9.286,9.286,0,0,1,3.98968-1.14246c-1.35461,3.24231-2.87744,6.59509-3.99646,7.80341h24.81714s-10.10779-2.57114-8.82207-9.55073a6.873,6.873,0,0,0,5.38775,4.83673,14.32516,14.32516,0,0,1-3.73469-7.71428s2.38775,1.13265,4.40816,1.898c-5.2653-6-5.32653-10.53062-5.57143-12,1.46939.59694,2.75511,2.95408,4.04082,5.20408.85714-4.83674-1.46939-8.28061-3.53572-13.05612a5.27275,5.27275,0,0,0,4.59184,1.23979c-5.21173-2.84694-2.76264-10.42126-2.60188-10.03657,1.3927,3.33249,2.1427,2.96514,2.87739,3.19473-1.102-1.33163-1.699-7.14795-.96428-8.70918.09183,1.65306,1.88265,2.77041,1.62245,2.32653-.82838-1.4131.949-7.04081,2.72449-10.83673a33.26755,33.26755,0,0,1,5.33144-7.36213S360.25534,374.68622,353.64688,374.64331Z" transform="translate(-203.20425 -359.66827)" /></svg>