<svg xmlns="http://www.w3.org/2000/svg" viewBox="0 0 549 307.11111"><rect width="549" height="9" fill="none"/><line x1="153.11111" y1="1.11111" x2="153.11111" y2="307.11111" fill="#fff"/><line x1="153.11111" y1="1.11111" x2="153.11111" y2="7.11111" fill="none" stroke="#929497" stroke-miterlimit="10" stroke-width="2"/><line x1="153.11111" y1="18.87111" x2="153.11111" y2="295.23111" fill="none" stroke="#929497" stroke-miterlimit="10" stroke-width="2" stroke-dasharray="11.76 11.76"/><line x1="153.11111" y1="301.11111" x2="153.11111" y2="307.11111" fill="none" stroke="#929497" stroke-miterlimit="10" stroke-width="2"/><line x1="26.16667" y1="40.5" x2="63.031" y2="40.5" fill="none" stroke="#3975bb" stroke-miterlimit="10" stroke-width="1.5"/><polygon points="60.95 43.551 72.333 40.5 60.95 37.449 60.95 43.551" fill="#3975bb"/><line x1="98.5" y1="40.5" x2="161.69766" y2="40.5" fill="none" stroke="#3975bb" stroke-miterlimit="10" stroke-width="1.5"/><polygon points="159.617 43.551 171 40.5 159.617 37.449 159.617 43.551" fill="#3975bb"/><line x1="234" y1="40.5" x2="252.36432" y2="40.5" fill="none" stroke="#3975bb" stroke-miterlimit="10" stroke-width="1.5"/><polygon points="250.284 43.551 261.667 40.5 250.284 37.449 250.284 43.551" fill="#3975bb"/><line x1="350.16666" y1="40.5" x2="378.36432" y2="40.5" fill="none" stroke="#3975bb" stroke-miterlimit="10" stroke-width="1.5"/><polygon points="376.284 43.551 387.667 40.5 376.284 37.449 376.284 43.551" fill="#3975bb"/><path d="M231.66667,170c12.41222,24.04868,127.08391,30.33194,173.659,37.13583" transform="translate(-27 -117)" fill="none" stroke="#3975bb" stroke-miterlimit="10" stroke-width="1.5"/><polygon points="375.775 92.848 387.5 91.667 376.755 86.826 375.775 92.848" fill="#3975bb"/><path d="M523,163c.20111,32.78581-59.49472,6.12978-77.74426,27.06029" transform="translate(-27 -117)" fill="none" stroke="#549445" stroke-miterlimit="10" stroke-width="1.5"/><polygon points="416.796 69.885 414 81.333 422.146 72.818 416.796 69.885" fill="#549445"/><path d="M548.33331,153.33333c-16.74389,103.0475-84.06015,59.18532-104.01638,91.10881" transform="translate(-27 -117)" fill="none" stroke="#549445" stroke-miterlimit="10" stroke-width="1.5"/><polygon points="415.517 124.362 413.667 136 421.089 126.846 415.517 124.362" fill="#549445"/><line x1="476.33333" y1="46.83333" x2="501" y2="46.83333" fill="#fff"/><line x1="476.33331" y1="46.83333" x2="496.1438" y2="46.83333" fill="none" stroke="#549445" stroke-miterlimit="10" stroke-width="1.5"/><path d="M522.88824,168.34506a4.51173,4.51173,0,1,0-4.51165-4.51173A4.51219,4.51219,0,0,0,522.88824,168.34506Z" transform="translate(-27 -117)" fill="#fff"/><path d="M522.88824,168.94505A5.11173,5.11173,0,1,1,528,163.83333a5.11785,5.11785,0,0,1-5.11176,5.11172Zm0-9.02343A3.91172,3.91172,0,1,0,526.8,163.83333a3.91549,3.91549,0,0,0-3.91175-3.91171Z" transform="translate(-27 -117)" fill="#549445"/><line x1="476.33333" y1="35.5" x2="527" y2="35.5" fill="#fff"/><line x1="476.33331" y1="35.5" x2="522.1438" y2="35.5" fill="none" stroke="#549445" stroke-miterlimit="10" stroke-width="1.5"/><path d="M548.88824,157.01172A4.51172,4.51172,0,1,0,544.37659,152.5,4.51218,4.51218,0,0,0,548.88824,157.01172Z" transform="translate(-27 -117)" fill="#fff"/><path d="M548.88824,157.61172A5.11172,5.11172,0,1,1,554,152.5a5.11785,5.11785,0,0,1-5.11176,5.11172Zm0-9.02345A3.91173,3.91173,0,1,0,552.8,152.5a3.9155,3.9155,0,0,0-3.91175-3.91173Z" transform="translate(-27 -117)" fill="#549445"/><line x1="124.83333" y1="157.16666" x2="227.69766" y2="157.16666" fill="none" stroke="#3975bb" stroke-miterlimit="10" stroke-width="1.5"/><polygon points="225.617 160.217 237 157.167 225.617 154.116 225.617 160.217" fill="#3975bb"/><path d="M120.66667,166.33333c53.18175,86.7473,157.13524-.09123,286.07057,87.96182" transform="translate(-27 -117)" fill="none" stroke="#3975bb" stroke-miterlimit="10" stroke-width="1.5"/><polygon points="376.237 138.697 387.333 142.667 379.709 133.68 376.237 138.697" fill="#3975bb"/><path d="M51.83333,231.16667c184.4516,19.84912,267.80861-3.68753,354.31,32.11614" transform="translate(-27 -117)" fill="none" stroke="#3975bb" stroke-miterlimit="10" stroke-width="1.5"/><polygon points="376.007 148.288 387.667 150 378.426 142.687 376.007 148.288" fill="#3975bb"/><line x1="25.33333" y1="220.5" x2="252.36432" y2="220.5" fill="none" stroke="#3975bb" stroke-miterlimit="10" stroke-width="1.5"/><polygon points="250.284 223.551 261.667 220.5 250.284 217.449 250.284 223.551" fill="#3975bb"/><line x1="350.16666" y1="220.5" x2="378.36432" y2="220.5" fill="none" stroke="#3975bb" stroke-miterlimit="10" stroke-width="1.5"/><polygon points="376.284 223.551 387.667 220.5 376.284 217.449 376.284 223.551" fill="#3975bb"/><path d="M523,343c.20111,32.7858-59.49472,6.12976-77.74426,27.0603" transform="translate(-27 -117)" fill="none" stroke="#549445" stroke-miterlimit="10" stroke-width="1.5"/><polygon points="416.796 249.885 414 261.333 422.146 252.818 416.796 249.885" fill="#549445"/><line x1="476.33333" y1="226.83333" x2="501" y2="226.83333" fill="#fff"/><line x1="476.33331" y1="226.83334" x2="496.1438" y2="226.83334" fill="none" stroke="#549445" stroke-miterlimit="10" stroke-width="1.5"/><path d="M522.88824,348.34506a4.51174,4.51174,0,1,0-4.51165-4.51172A4.51219,4.51219,0,0,0,522.88824,348.34506Z" transform="translate(-27 -117)" fill="#fff"/><path d="M522.88824,348.94507A5.11173,5.11173,0,1,1,528,343.83334a5.11786,5.11786,0,0,1-5.11176,5.11173Zm0-9.02347A3.91173,3.91173,0,1,0,526.8,343.83334a3.9155,3.9155,0,0,0-3.91175-3.91174Z" transform="translate(-27 -117)" fill="#549445"/><line x1="476.33333" y1="215.5" x2="527" y2="215.5" fill="#fff"/><line x1="476.33331" y1="215.5" x2="522.1438" y2="215.5" fill="none" stroke="#549445" stroke-miterlimit="10" stroke-width="1.5"/><path d="M548.88824,337.01172A4.51172,4.51172,0,1,0,544.37659,332.5,4.51219,4.51219,0,0,0,548.88824,337.01172Z" transform="translate(-27 -117)" fill="#fff"/><path d="M548.88824,337.61172A5.11172,5.11172,0,1,1,554,332.5a5.11785,5.11785,0,0,1-5.11176,5.11172Zm0-9.02343A3.91171,3.91171,0,1,0,552.8,332.5a3.91549,3.91549,0,0,0-3.91175-3.91171Z" transform="translate(-27 -117)" fill="#549445"/><path d="M50.33333,345c74.76721,47.87726,168.258,40.72092,354.70137,46.05881" transform="translate(-27 -117)" fill="none" stroke="#3975bb" stroke-miterlimit="10" stroke-width="1.5"/><polygon points="375.885 277.127 387.333 274.333 376.022 271.027 375.885 277.127" fill="#3975bb"/><rect x="128.48395" y="234.2268" width="4.68714" height="7.02164" transform="translate(-72.87921 -85.19865) rotate(-11.80766)" fill="#fff"/><rect x="119.56728" y="198.7268" width="4.68714" height="7.02164" transform="translate(-65.80363 -87.77442) rotate(-11.80766)" fill="#fff"/><rect x="78.70617" y="185.75457" width="4.68714" height="7.02164" transform="translate(119.71776 -122.87087) rotate(41.78154)" fill="#fff"/><line x1="86.66666" y1="52.66667" x2="107.29424" y2="134.9767" fill="none" stroke="#3975bb" stroke-miterlimit="10" stroke-width="1.5"/><polygon points="103.829 133.7 109.556 144 109.748 132.217 103.829 133.7" fill="#3975bb"/><line x1="23.66667" y1="104" x2="69.56722" y2="56.05292" fill="none" stroke="#3975bb" stroke-miterlimit="10" stroke-width="1.5"/><polygon points="70.332 59.665 76 49.333 65.925 55.446 70.332 59.665" fill="#3975bb"/><line x1="22" y1="212.44446" x2="93.23769" y2="167.62073" fill="none" stroke="#3975bb" stroke-miterlimit="10" stroke-width="1.5"/><polygon points="93.101 171.311 101.111 162.667 89.852 166.147 93.101 171.311" fill="#3975bb"/><circle cx="13.5" cy="112.5" r="12.75" fill="#fff"/><path d="M40.5,217.5a12,12,0,1,1-12,12,12.01359,12.01359,0,0,1,12-12m0-1.5A13.5,13.5,0,1,0,54,229.5,13.5,13.5,0,0,0,40.5,216Z" transform="translate(-27 -117)" fill="#231f20"/><path d="M37.66748,225.54443a14.53729,14.53729,0,0,1,2.36279-.168,4.46756,4.46756,0,0,1,2.38672.45557,1.75981,1.75981,0,0,1,.97119,1.5835,1.82685,1.82685,0,0,1-1.331,1.72705v.02392a2.02253,2.02253,0,0,1,1.60693,1.99073,2.15359,2.15359,0,0,1-.83935,1.71533,5.10334,5.10334,0,0,1-3.17823.73144,14.12365,14.12365,0,0,1-1.979-.12011Zm1.811,3.09424h.5996c.95948,0,1.4751-.39551,1.4751-.9956,0-.61133-.46777-.93506-1.29492-.93506a5.00292,5.00292,0,0,0-.77978.04785Zm0,3.58594a5.77985,5.77985,0,0,0,.70752.02393c.82763,0,1.55908-.31153,1.55908-1.16309,0-.81543-.73145-1.13965-1.64307-1.13965h-.62353Z" transform="translate(-27 -117)" fill="#231f20"/><circle cx="13.5" cy="40.5" r="12.75" fill="#fff"/><path d="M40.5,145.5a12,12,0,1,1-12,12,12.01359,12.01359,0,0,1,12-12m0-1.5A13.5,13.5,0,1,0,54,157.5,13.5,13.5,0,0,0,40.5,144Z" transform="translate(-27 -117)" fill="#231f20"/><path d="M39.23828,159.44531,38.6626,161.52H36.76807l2.47021-8.0835h2.39893l2.50634,8.0835H42.17676l-.62354-2.07471Zm2.05127-1.36719-.50391-1.71533c-.144-.47949-.28759-1.07959-.40771-1.55908H40.354c-.12011.47949-.23974,1.09131-.37207,1.55908l-.47949,1.71533Z" transform="translate(-27 -117)" fill="#231f20"/><circle cx="85.5" cy="40.5" r="12.75" fill="#fff"/><path d="M112.5,145.5a12,12,0,1,1-12,12,12.01359,12.01359,0,0,1,12-12m0-1.5A13.5,13.5,0,1,0,126,157.5,13.5,13.5,0,0,0,112.5,144Z" transform="translate(-27 -117)" fill="#231f20"/><path d="M109.11572,153.54443a16.32516,16.32516,0,0,1,2.47071-.168,5.19793,5.19793,0,0,1,3.31005.86377,3.57527,3.57527,0,0,1,1.36719,3.0459,4.09945,4.09945,0,0,1-1.34326,3.27442,5.80328,5.80328,0,0,1-3.73,1.04345,15.803,15.803,0,0,1-2.07471-.12011Zm1.835,6.59619a3.34837,3.34837,0,0,0,.63575.03614,2.50568,2.50568,0,0,0,2.73437-2.83057,2.31807,2.31807,0,0,0-2.54248-2.5664,3.82735,3.82735,0,0,0-.82764.07177Z" transform="translate(-27 -117)" fill="#231f20"/><circle cx="112.5" cy="157.5" r="12.75" fill="#fff"/><path d="M139.5,262.5a12,12,0,1,1-12,12,12.01359,12.01359,0,0,1,12-12m0-1.5A13.5,13.5,0,1,0,153,274.5,13.5,13.5,0,0,0,139.5,261Z" transform="translate(-27 -117)" fill="#231f20"/><path d="M141.897,275.10205h-2.97461V277.021h3.32227v1.499H137.0874v-8.0835h4.98926v1.499h-3.1543v1.6792H141.897Z" transform="translate(-27 -117)" fill="#231f20"/><rect x="387.75" y="81.75" width="43.5" height="25.5" fill="#fff"/><path d="M457.5,199.5v24h-42v-24h42M459,198H414v27h45V198Z" transform="translate(-27 -117)" fill="#231f20"/><path d="M431.10156,212.42578c-.03515-.97168-.07226-2.147-.07226-3.32226h-.03516c-.252,1.03125-.58789,2.18261-.89941,3.13037l-.9834,3.15429h-1.42774l-.86328-3.13037c-.26367-.94726-.53906-2.09863-.73144-3.15429h-.02442c-.04785,1.0913-.084,2.33886-.14355,3.34619l-.14356,3.07031h-1.6914l.51562-8.0835h2.43457l.792,2.69825c.252.93554.50391,1.94335.6836,2.89062h.03516c.22851-.93555.5039-2.00293.76757-2.90234l.86328-2.68653h2.38672l.44434,8.0835h-1.78711Z" transform="translate(-27 -117)" fill="#231f20"/><path d="M440.17383,216.33545a4.9187,4.9187,0,0,1-2.19434.43213,3.643,3.643,0,0,1-3.74121-3.77832,4.4288,4.4288,0,0,1,4.48438-4.56934,3.42027,3.42027,0,0,1,3.623,3.46631c0,1.751-.98437,2.854-2.27929,2.854a.94017.94017,0,0,1-1.03125-.92334h-.02344a1.76245,1.76245,0,0,1-1.54785.92334,1.37017,1.37017,0,0,1-1.34278-1.55908,2.73894,2.73894,0,0,1,2.80664-2.79443,3.364,3.364,0,0,1,1.42676.2998l-.36035,2.21875c-.11914.708-.03516,1.03174.30078,1.04346.51563.01221,1.16211-.64746,1.16211-2.02685a2.64385,2.64385,0,0,0-2.86523-2.77051,3.495,3.495,0,0,0-3.44336,3.73,2.90367,2.90367,0,0,0,3.07031,3.14258,3.9117,3.9117,0,0,0,1.74023-.38379Zm-1.06641-4.95313a1.4848,1.4848,0,0,0-.37207-.04785,1.5827,1.5827,0,0,0-1.415,1.70313c0,.45556.20313.74316.59961.74316.44336,0,.91113-.56347,1.01953-1.25928Z" transform="translate(-27 -117)" fill="#231f20"/><path d="M445.69629,209.34326h-.02441l-1.48633.70752-.30078-1.36719,2.06347-.95947H447.459V215.52h-1.76269Z" transform="translate(-27 -117)" fill="#231f20"/><rect x="387.75" y="135.75" width="43.5" height="25.5" fill="#fff"/><path d="M457.5,253.5v24h-42v-24h42M459,252H414v27h45V252Z" transform="translate(-27 -117)" fill="#231f20"/><path d="M425.20117,269.52v-8.0835h2.13477l1.67968,2.96241a23.55446,23.55446,0,0,1,1.31934,2.7705h.03613a29.95168,29.95168,0,0,1-.15625-3.37011v-2.3628h1.67969V269.52h-1.91992l-1.72656-3.11816a30.07065,30.07065,0,0,1-1.40332-2.8545l-.03614.01172c.04883,1.06787.07227,2.207.07227,3.52637V269.52Z" transform="translate(-27 -117)" fill="#231f20"/><path d="M439.23828,270.33545a4.92563,4.92563,0,0,1-2.19531.43213,3.64356,3.64356,0,0,1-3.74121-3.77832,4.429,4.429,0,0,1,4.48535-4.56934,3.41945,3.41945,0,0,1,3.62207,3.46631c0,1.751-.9834,2.854-2.27832,2.854a.93967.93967,0,0,1-1.03125-.92334h-.02441a1.76024,1.76024,0,0,1-1.54786.92334,1.37068,1.37068,0,0,1-1.34277-1.55908,2.73893,2.73893,0,0,1,2.80664-2.79443,3.36409,3.36409,0,0,1,1.42676.2998l-.35938,2.21875c-.12011.708-.03613,1.03174.29981,1.04346.51562.01221,1.16308-.64746,1.16308-2.02685a2.64465,2.64465,0,0,0-2.86621-2.77051,3.49483,3.49483,0,0,0-3.44238,3.73,2.90319,2.90319,0,0,0,3.07031,3.14258,3.90747,3.90747,0,0,0,1.73926-.38379Zm-1.06738-4.95313a1.4783,1.4783,0,0,0-.37207-.04785,1.58337,1.58337,0,0,0-1.415,1.70313c0,.45556.2041.74316.59961.74316.44433,0,.91113-.56347,1.01953-1.25928Z" transform="translate(-27 -117)" fill="#231f20"/><path d="M442.43359,269.52V268.4165l1.00782-.91162c1.70312-1.523,2.53027-2.39843,2.55468-3.31006,0-.63574-.38476-1.13916-1.28418-1.13916a2.82957,2.82957,0,0,0-1.667.64746l-.51562-1.30712a4.31542,4.31542,0,0,1,2.55468-.80371,2.42264,2.42264,0,0,1,2.73438,2.44677c0,1.30713-.94727,2.35059-2.07422,3.35791l-.7207.6001v.02393h2.93945v1.499Z" transform="translate(-27 -117)" fill="#231f20"/><rect x="236.75" y="144.75" width="43.5" height="25.5" fill="#fff"/><path d="M306.5,262.5v24h-42v-24h42M308,261H263v27h45V261Z" transform="translate(-27 -117)" fill="#231f20"/><path d="M274.20166,278.52v-8.0835h2.13477l1.67919,2.96241a23.47677,23.47677,0,0,1,1.31934,2.7705h.03613a29.95168,29.95168,0,0,1-.15625-3.37011v-2.3628h1.6792V278.52H278.9751l-1.72705-3.11816a30.18875,30.18875,0,0,1-1.40332-2.8545l-.03614.01172c.04834,1.06787.07227,2.207.07227,3.52637V278.52Z" transform="translate(-27 -117)" fill="#231f20"/><path d="M288.23828,279.33545a4.9235,4.9235,0,0,1-2.19482.43213,3.64367,3.64367,0,0,1-3.7417-3.77832,4.42931,4.42931,0,0,1,4.48535-4.56934,3.41973,3.41973,0,0,1,3.62207,3.46631c0,1.751-.9834,2.854-2.27881,2.854a.94042.94042,0,0,1-1.03125-.92334h-.02392a1.76062,1.76062,0,0,1-1.54737.92334,1.37076,1.37076,0,0,1-1.34326-1.55908,2.73923,2.73923,0,0,1,2.80664-2.79443,3.36822,3.36822,0,0,1,1.42725.2998l-.35987,2.21875c-.12011.708-.03613,1.03174.29981,1.04346.51562.01221,1.16308-.64746,1.16308-2.02685a2.64439,2.64439,0,0,0-2.86621-2.77051,3.49483,3.49483,0,0,0-3.44238,3.73,2.90343,2.90343,0,0,0,3.07031,3.14258,3.906,3.906,0,0,0,1.73926-.38379Zm-1.06738-4.95313a1.47724,1.47724,0,0,0-.37158-.04785,1.58339,1.58339,0,0,0-1.41553,1.70313c0,.45556.2041.74316.59961.74316.44385,0,.91162-.56347,1.01953-1.25928Z" transform="translate(-27 -117)" fill="#231f20"/><path d="M291.75732,276.73291a4.29588,4.29588,0,0,0,1.811.48c.94726,0,1.42725-.45605,1.42725-1.04346,0-.76757-.76758-1.11572-1.57129-1.11572h-.74366v-1.30713h.70752c.61182-.01172,1.39161-.23974,1.39161-.89941,0-.46778-.38379-.81543-1.15137-.81543a3.5593,3.5593,0,0,0-1.63135.46777l-.37158-1.31933a4.88492,4.88492,0,0,1,2.41064-.58789c1.667,0,2.59033.87548,2.59033,1.94287a1.86719,1.86719,0,0,1-1.42724,1.811v.02393a1.93727,1.93727,0,0,1,1.6914,1.895c0,1.37939-1.21142,2.38672-3.19042,2.38672a4.6051,4.6051,0,0,1-2.315-.55176Z" transform="translate(-27 -117)" fill="#231f20"/><rect x="171.88721" y="27.88721" width="61.22559" height="25.22559" fill="#fff"/><path d="M259.22519,145.77483v23.45034H199.77483V145.77483h59.45036M261,144H198v27h63V144Z" transform="translate(-27 -117)" fill="#231f20"/><path d="M210.98877,153.43652H212.812v5.10938c0,2.30273-1.10351,3.106-2.87842,3.106a4.75438,4.75438,0,0,1-1.33154-.1919l.2041-1.4751a3.006,3.006,0,0,0,.93555.144c.76758,0,1.24707-.34815,1.24707-1.60743Z" transform="translate(-27 -117)" fill="#231f20"/><path d="M220.09473,162.33545a4.92354,4.92354,0,0,1-2.19483.43213,3.64368,3.64368,0,0,1-3.7417-3.77832,4.42932,4.42932,0,0,1,4.48535-4.56934,3.41973,3.41973,0,0,1,3.62207,3.46631c0,1.751-.98339,2.854-2.2788,2.854a.94042.94042,0,0,1-1.03125-.92334h-.02393a1.76059,1.76059,0,0,1-1.54736.92334,1.37076,1.37076,0,0,1-1.34326-1.55908,2.73923,2.73923,0,0,1,2.80664-2.79443,3.36813,3.36813,0,0,1,1.42724.2998l-.35986,2.21875c-.12012.708-.03613,1.03174.2998,1.04346.51563.01221,1.16309-.64746,1.16309-2.02685a2.64439,2.64439,0,0,0-2.86621-2.77051,3.49483,3.49483,0,0,0-3.44238,3.73,2.90343,2.90343,0,0,0,3.07031,3.14258,3.906,3.906,0,0,0,1.73926-.38379Zm-1.06739-4.95313a1.47724,1.47724,0,0,0-.37158-.04785,1.5834,1.5834,0,0,0-1.41553,1.70313c0,.45556.20411.74316.59961.74316.44385,0,.91162-.56347,1.01954-1.25928Z" transform="translate(-27 -117)" fill="#231f20"/><path d="M225.6167,155.34326h-.02393l-1.4873.70752-.29981-1.36719,2.063-.95947h1.51074V161.52H225.6167Z" transform="translate(-27 -117)" fill="#231f20"/><path d="M235.44287,162.41943v.59961h-5.99658v-.59961Z" transform="translate(-27 -117)" fill="#231f20"/><path d="M236.23779,161.52v-8.0835h2.13477l1.6792,2.96241a23.47829,23.47829,0,0,1,1.31933,2.7705h.03614a29.94932,29.94932,0,0,1-.15625-3.37011v-2.3628h1.6792V161.52h-1.91895l-1.72705-3.11816a30.19359,30.19359,0,0,1-1.40332-2.8545l-.03613.01172c.04834,1.06787.07226,2.207.07226,3.52637V161.52Z" transform="translate(-27 -117)" fill="#231f20"/><path d="M244.22949,161.52V160.4165l1.00781-.91162c1.70313-1.523,2.53028-2.39843,2.55469-3.31006,0-.63574-.38379-1.13916-1.2832-1.13916a2.82439,2.82439,0,0,0-1.667.64746l-.51563-1.30712a4.31228,4.31228,0,0,1,2.55371-.80371,2.42346,2.42346,0,0,1,2.73535,2.44677c0,1.30713-.94824,2.35059-2.07519,3.35791l-.71973.6001v.02393h2.93848v1.499Z" transform="translate(-27 -117)" fill="#231f20"/><rect x="261.75" y="27.75" width="88.5" height="25.5" fill="#fff"/><path d="M376.5,145.5v24h-87v-24h87M378,144H288v27h90V144Z" transform="translate(-27 -117)" fill="#231f20"/><path d="M300.28174,153.43652h1.811v3.57422h.03614c.17968-.312.37158-.6001.55175-.88769l1.835-2.68653h2.24268l-2.6748,3.4419,2.81884,4.6416h-2.13476l-1.979-3.49023-.6958.85156V161.52h-1.811Z" transform="translate(-27 -117)" fill="#231f20"/><path d="M313.40625,162.33545a4.91868,4.91868,0,0,1-2.19434.43213,3.643,3.643,0,0,1-3.74121-3.77832,4.4288,4.4288,0,0,1,4.48438-4.56934,3.42027,3.42027,0,0,1,3.623,3.46631c0,1.751-.98437,2.854-2.27929,2.854a.94017.94017,0,0,1-1.03125-.92334h-.02344a1.76245,1.76245,0,0,1-1.54785.92334,1.37017,1.37017,0,0,1-1.34277-1.55908,2.73893,2.73893,0,0,1,2.80664-2.79443,3.364,3.364,0,0,1,1.42675.2998l-.36035,2.21875c-.11914.708-.03515,1.03174.30078,1.04346.51563.01221,1.16211-.64746,1.16211-2.02685a2.64385,2.64385,0,0,0-2.86523-2.77051,3.495,3.495,0,0,0-3.44336,3.73,2.90367,2.90367,0,0,0,3.07031,3.14258,3.91174,3.91174,0,0,0,1.74024-.38379Zm-1.06641-4.95313a1.48474,1.48474,0,0,0-.37207-.04785,1.5827,1.5827,0,0,0-1.415,1.70313c0,.45556.20313.74316.59961.74316.44336,0,.91114-.56347,1.01954-1.25928Z" transform="translate(-27 -117)" fill="#231f20"/><path d="M318.92871,155.34326h-.02441l-1.48633.70752-.30078-1.36719,2.06347-.95947h1.51075V161.52h-1.7627Z" transform="translate(-27 -117)" fill="#231f20"/><path d="M328.75488,162.41943v.59961h-5.99707v-.59961Z" transform="translate(-27 -117)" fill="#231f20"/><path d="M336.38574,158.42578c-.03613-.97168-.07226-2.147-.07226-3.32226h-.03614c-.25195,1.03125-.58691,2.18261-.89941,3.13037l-.9834,3.15429h-1.42676l-.86425-3.13037c-.26368-.94726-.53907-2.09863-.73145-3.15429h-.02344c-.04785,1.0913-.084,2.33886-.14453,3.34619l-.14355,3.07031h-1.69141l.51563-8.0835h2.43554l.791,2.69825c.25195.93554.5039,1.94335.68359,2.89062h.03613c.22754-.93555.50391-2.00293.76758-2.90234l.86328-2.68653h2.38672l.44434,8.0835h-1.78711Z" transform="translate(-27 -117)" fill="#231f20"/><path d="M341.74023,155.34326h-.02343l-1.48731.70752-.2998-1.36719,2.0625-.95947h1.51172V161.52h-1.76368Z" transform="translate(-27 -117)" fill="#231f20"/><path d="M351.56738,162.41943v.59961h-5.99707v-.59961Z" transform="translate(-27 -117)" fill="#231f20"/><path d="M352.3623,161.52v-8.0835h2.13477l1.67871,2.96241a23.55605,23.55605,0,0,1,1.31934,2.7705h.03613a29.94932,29.94932,0,0,1-.15625-3.37011v-2.3628h1.67969V161.52h-1.91992l-1.72657-3.11816a30.07545,30.07545,0,0,1-1.40332-2.8545l-.03613.01172c.04785,1.06787.07227,2.207.07227,3.52637V161.52Z" transform="translate(-27 -117)" fill="#231f20"/><path d="M360.35449,161.52V160.4165l1.00684-.91162c1.70312-1.523,2.53125-2.39843,2.55469-3.31006,0-.63574-.38379-1.13916-1.28321-1.13916a2.827,2.827,0,0,0-1.667.64746l-.51562-1.30712a4.31542,4.31542,0,0,1,2.55468-.80371,2.42313,2.42313,0,0,1,2.73438,2.44677c0,1.30713-.94727,2.35059-2.0752,3.35791l-.71875.6001v.02393h2.9375v1.499Z" transform="translate(-27 -117)" fill="#231f20"/><rect x="387.75" y="27.75" width="88.5" height="25.5" fill="#fff"/><path d="M502.5,145.5v24h-87v-24h87M504,144H414v27h90V144Z" transform="translate(-27 -117)" fill="#231f20"/><path d="M426.90039,153.43652h1.834v6.54834h3.21484V161.52h-5.04883Z" transform="translate(-27 -117)" fill="#231f20"/><path d="M438.78906,162.33545a4.92832,4.92832,0,0,1-2.19531.43213,3.64434,3.64434,0,0,1-3.74219-3.77832,4.42983,4.42983,0,0,1,4.48633-4.56934,3.41918,3.41918,0,0,1,3.62109,3.46631c0,1.751-.98242,2.854-2.27832,2.854a.94018.94018,0,0,1-1.03125-.92334H437.625a1.75874,1.75874,0,0,1-1.54688.92334,1.37135,1.37135,0,0,1-1.34374-1.55908,2.73952,2.73952,0,0,1,2.80664-2.79443,3.36881,3.36881,0,0,1,1.42773.2998l-.35937,2.21875c-.1211.708-.03711,1.03174.29882,1.04346.51563.01221,1.16407-.64746,1.16407-2.02685a2.64494,2.64494,0,0,0-2.86719-2.77051,3.49466,3.49466,0,0,0-3.44141,3.73,2.90319,2.90319,0,0,0,3.07031,3.14258,3.90328,3.90328,0,0,0,1.73829-.38379Zm-1.06836-4.95313a1.4697,1.4697,0,0,0-.37109-.04785,1.58342,1.58342,0,0,0-1.416,1.70313c0,.45556.20508.74316.59961.74316.44434,0,.91211-.56347,1.01953-1.25928Z" transform="translate(-27 -117)" fill="#231f20"/><path d="M444.31055,155.34326h-.02344l-1.48828.70752L442.5,154.68359l2.0625-.95947h1.51074V161.52h-1.76269Z" transform="translate(-27 -117)" fill="#231f20"/><path d="M454.13672,162.41943v.59961h-5.99707v-.59961Z" transform="translate(-27 -117)" fill="#231f20"/><path d="M461.76758,158.42578c-.03613-.97168-.07227-2.147-.07227-3.32226h-.03613c-.25195,1.03125-.58691,2.18261-.89941,3.13037l-.9834,3.15429h-1.42676l-.86426-3.13037c-.26367-.94726-.53906-2.09863-.73144-3.15429h-.02344c-.04785,1.0913-.084,2.33886-.14453,3.34619l-.14356,3.07031H454.751l.51562-8.0835h2.43555l.791,2.69825c.252.93554.50391,1.94335.6836,2.89062h.03613c.22754-.93555.50391-2.00293.76758-2.90234l.86328-2.68653h2.38672l.44433,8.0835h-1.7871Z" transform="translate(-27 -117)" fill="#231f20"/><path d="M467.12207,155.34326h-.02344l-1.4873.70752-.29981-1.36719,2.0625-.95947h1.51172V161.52h-1.76367Z" transform="translate(-27 -117)" fill="#231f20"/><path d="M476.94922,162.41943v.59961h-5.99707v-.59961Z" transform="translate(-27 -117)" fill="#231f20"/><path d="M477.74414,161.52v-8.0835h2.13477l1.67871,2.96241a23.4011,23.4011,0,0,1,1.31933,2.7705h.03614a29.94932,29.94932,0,0,1-.15625-3.37011v-2.3628h1.67871V161.52h-1.918L480.79,158.40186a30.07545,30.07545,0,0,1-1.40332-2.8545l-.03613.01172c.04785,1.06787.07226,2.207.07226,3.52637V161.52Z" transform="translate(-27 -117)" fill="#231f20"/><path d="M485.73633,161.52V160.4165l1.00683-.91162c1.70313-1.523,2.53125-2.39843,2.55469-3.31006,0-.63574-.38379-1.13916-1.2832-1.13916a2.82954,2.82954,0,0,0-1.667.64746L485.832,154.396a4.31543,4.31543,0,0,1,2.55469-.80371,2.42313,2.42313,0,0,1,2.73437,2.44677c0,1.30713-.94726,2.35059-2.07519,3.35791l-.71875.6001v.02393h2.9375v1.499Z" transform="translate(-27 -117)" fill="#231f20"/><circle cx="13.5" cy="220.5" r="12.75" fill="#fff"/><path d="M40.5,325.5a12,12,0,1,1-12,12,12.01359,12.01359,0,0,1,12-12m0-1.5A13.5,13.5,0,1,0,54,337.5,13.5,13.5,0,0,0,40.5,324Z" transform="translate(-27 -117)" fill="#231f20"/><path d="M43.65869,341.292a5.21031,5.21031,0,0,1-2.07519.34815c-2.79444,0-4.2334-1.73926-4.2334-4.042a4.12079,4.12079,0,0,1,4.41357-4.29345,4.76436,4.76436,0,0,1,1.99072.35986l-.37158,1.45117a3.94336,3.94336,0,0,0-1.53515-.2998,2.6575,2.6575,0,0,0,.01172,5.313,4.56536,4.56536,0,0,0,1.52343-.26416Z" transform="translate(-27 -117)" fill="#231f20"/><rect x="387.75" y="261.75" width="43.5" height="25.5" fill="#fff"/><path d="M457.5,379.5v24h-42v-24h42M459,378H414v27h45V378Z" transform="translate(-27 -117)" fill="#231f20"/><path d="M431.10156,392.42578c-.03515-.97168-.07226-2.147-.07226-3.32226h-.03516c-.252,1.03125-.58789,2.18261-.89941,3.13037l-.9834,3.15429h-1.42774l-.86328-3.13037c-.26367-.94726-.53906-2.09863-.73144-3.15429h-.02442c-.04785,1.0913-.084,2.33886-.14355,3.34619l-.14356,3.07031h-1.6914l.51562-8.0835h2.43457l.792,2.69825c.252.93554.50391,1.94335.6836,2.89062h.03516c.22851-.93555.5039-2.00293.76757-2.90234l.86328-2.68653h2.38672l.44434,8.0835h-1.78711Z" transform="translate(-27 -117)" fill="#231f20"/><path d="M440.17383,396.33545a4.9187,4.9187,0,0,1-2.19434.43213,3.643,3.643,0,0,1-3.74121-3.77832,4.4288,4.4288,0,0,1,4.48438-4.56934,3.42027,3.42027,0,0,1,3.623,3.46631c0,1.751-.98437,2.854-2.27929,2.854a.94017.94017,0,0,1-1.03125-.92334h-.02344a1.76245,1.76245,0,0,1-1.54785.92334,1.37017,1.37017,0,0,1-1.34278-1.55908,2.73894,2.73894,0,0,1,2.80664-2.79443,3.364,3.364,0,0,1,1.42676.2998l-.36035,2.21875c-.11914.708-.03516,1.03174.30078,1.04346.51563.01221,1.16211-.64746,1.16211-2.02685a2.64385,2.64385,0,0,0-2.86523-2.77051,3.495,3.495,0,0,0-3.44336,3.73,2.90367,2.90367,0,0,0,3.07031,3.14258,3.9117,3.9117,0,0,0,1.74023-.38379Zm-1.06641-4.95313a1.4848,1.4848,0,0,0-.37207-.04785,1.5827,1.5827,0,0,0-1.415,1.70313c0,.45556.20313.74316.59961.74316.44336,0,.91113-.56347,1.01953-1.25928Z" transform="translate(-27 -117)" fill="#231f20"/><path d="M445.69629,389.34326h-.02441l-1.48633.70752-.30078-1.36719,2.06347-.95947H447.459V395.52h-1.76269Z" transform="translate(-27 -117)" fill="#231f20"/><rect x="261.75" y="207.75" width="88.5" height="25.5" fill="#fff"/><path d="M376.5,325.5v24h-87v-24h87M378,324H288v27h90V324Z" transform="translate(-27 -117)" fill="#231f20"/><path d="M310.752,333.43652h1.81055v3.57422h.03613c.17969-.312.37207-.6001.55176-.88769l1.835-2.68653h2.24317l-2.67579,3.4419,2.81934,4.6416H315.2373l-1.97949-3.49023-.69531.85156V341.52H310.752Z" transform="translate(-27 -117)" fill="#231f20"/><path d="M323.877,342.33545a4.92832,4.92832,0,0,1-2.19531.43213,3.64434,3.64434,0,0,1-3.74219-3.77832,4.42983,4.42983,0,0,1,4.48633-4.56934,3.41919,3.41919,0,0,1,3.6211,3.46631c0,1.751-.9834,2.854-2.27833,2.854a.94018.94018,0,0,1-1.03125-.92334h-.02441a1.75873,1.75873,0,0,1-1.54687.92334,1.37135,1.37135,0,0,1-1.34375-1.55908,2.73952,2.73952,0,0,1,2.80664-2.79443,3.36881,3.36881,0,0,1,1.42773.2998l-.35937,2.21875c-.1211.708-.03711,1.03174.29882,1.04346.51563.01221,1.16407-.64746,1.16407-2.02685a2.64494,2.64494,0,0,0-2.86719-2.77051,3.49466,3.49466,0,0,0-3.44141,3.73,2.9032,2.9032,0,0,0,3.07032,3.14258,3.90327,3.90327,0,0,0,1.73828-.38379Zm-1.06836-4.95313a1.4697,1.4697,0,0,0-.37109-.04785,1.58342,1.58342,0,0,0-1.416,1.70313c0,.45556.20508.74316.59961.74316.44434,0,.91211-.56347,1.01953-1.25928Z" transform="translate(-27 -117)" fill="#231f20"/><path d="M329.39844,335.34326H329.375l-1.4873.70752-.29981-1.36719,2.0625-.95947h1.51172V341.52h-1.76367Z" transform="translate(-27 -117)" fill="#231f20"/><path d="M339.22559,342.41943v.59961h-5.99707v-.59961Z" transform="translate(-27 -117)" fill="#231f20"/><path d="M346.85645,338.42578c-.03614-.97168-.07227-2.147-.07227-3.32226h-.03613c-.252,1.03125-.58692,2.18261-.89942,3.13037l-.9834,3.15429h-1.42675l-.86426-3.13037c-.26367-.94726-.53906-2.09863-.73145-3.15429h-.02343c-.04786,1.0913-.084,2.33886-.14454,3.34619l-.14355,3.07031h-1.69141l.51563-8.0835H342.791l.791,2.69825c.252.93554.50391,1.94335.68359,2.89062h.03614c.22754-.93555.5039-2.00293.76758-2.90234l.86328-2.68653h2.38672l.44433,8.0835h-1.78711Z" transform="translate(-27 -117)" fill="#231f20"/><path d="M352.21094,335.34326h-.02344l-1.4873.70752-.29981-1.36719,2.0625-.95947h1.51172V341.52h-1.76367Z" transform="translate(-27 -117)" fill="#231f20"/><rect x="387.75" y="207.75" width="88.5" height="25.5" fill="#fff"/><path d="M502.5,325.5v24h-87v-24h87M504,324H414v27h90V324Z" transform="translate(-27 -117)" fill="#231f20"/><path d="M437.36914,333.43652h1.83594v6.54834H442.419V341.52h-5.04981Z" transform="translate(-27 -117)" fill="#231f20"/><path d="M449.25781,342.33545a4.91866,4.91866,0,0,1-2.19433.43213,3.643,3.643,0,0,1-3.74121-3.77832,4.42879,4.42879,0,0,1,4.48437-4.56934,3.41945,3.41945,0,0,1,3.62207,3.46631c0,1.751-.9834,2.854-2.27832,2.854a.94017.94017,0,0,1-1.03125-.92334h-.02344a1.76243,1.76243,0,0,1-1.54785.92334,1.37017,1.37017,0,0,1-1.34277-1.55908,2.73893,2.73893,0,0,1,2.80664-2.79443,3.36409,3.36409,0,0,1,1.42676.2998l-.36036,2.21875c-.11914.708-.03515,1.03174.30079,1.04346.51562.01221,1.16211-.64746,1.16211-2.02685a2.64386,2.64386,0,0,0-2.86524-2.77051,3.495,3.495,0,0,0-3.44336,3.73,2.90367,2.90367,0,0,0,3.07031,3.14258,3.91174,3.91174,0,0,0,1.74024-.38379Zm-1.0664-4.95313a1.48487,1.48487,0,0,0-.37207-.04785,1.58269,1.58269,0,0,0-1.415,1.70313c0,.45556.20312.74316.59961.74316.44336,0,.91113-.56347,1.01953-1.25928Z" transform="translate(-27 -117)" fill="#231f20"/><path d="M454.78027,335.34326h-.02343l-1.48731.70752-.2998-1.36719,2.0625-.95947H456.544V341.52h-1.76368Z" transform="translate(-27 -117)" fill="#231f20"/><path d="M464.60742,342.41943v.59961h-5.99707v-.59961Z" transform="translate(-27 -117)" fill="#231f20"/><path d="M472.23828,338.42578c-.03613-.97168-.07226-2.147-.07226-3.32226h-.03614c-.252,1.03125-.58691,2.18261-.89941,3.13037l-.9834,3.15429h-1.42676l-.86426-3.13037c-.26367-.94726-.53906-2.09863-.73144-3.15429h-.02344c-.04785,1.0913-.084,2.33886-.14453,3.34619l-.14355,3.07031h-1.69141l.51562-8.0835h2.43555l.791,2.69825c.252.93554.5039,1.94335.68359,2.89062h.03613c.22754-.93555.50391-2.00293.76758-2.90234l.86328-2.68653h2.38672l.44434,8.0835H472.3584Z" transform="translate(-27 -117)" fill="#231f20"/><path d="M477.59277,335.34326h-.02343l-1.48731.70752-.2998-1.36719,2.0625-.95947h1.51172V341.52h-1.76368Z" transform="translate(-27 -117)" fill="#231f20"/><path d="M487.05273,183.44287a7.91209,7.91209,0,0,0-1.51074,4.90527,8.0817,8.0817,0,0,0,1.51074,4.86915h-.82714a7.75128,7.75128,0,0,1-1.57129-4.86915,7.91216,7.91216,0,0,1,1.57129-4.90527Z" transform="translate(-27 -117)" fill="#231f20"/><path d="M488.1709,187.85645c0-.74366-.02442-1.34327-.04883-1.895h.94824l.04785.99511h.02344a2.28194,2.28194,0,0,1,2.06348-1.12695c1.40332,0,2.458,1.187,2.458,2.9502,0,2.08691-1.27051,3.11816-2.63868,3.11816a2.034,2.034,0,0,1-1.78613-.91162h-.02441v3.15429h-1.043Zm1.043,1.54687a2.42588,2.42588,0,0,0,.04785.43164,1.62906,1.62906,0,0,0,1.583,1.23535c1.11523,0,1.76367-.91113,1.76367-2.24267,0-1.16309-.61231-2.15869-1.72754-2.15869a1.68283,1.68283,0,0,0-1.59473,1.30712,1.70636,1.70636,0,0,0-.07226.43164Z" transform="translate(-27 -117)" fill="#231f20"/><path d="M495.58594,189.05566a1.85972,1.85972,0,0,0,1.99121,2.01465,3.8187,3.8187,0,0,0,1.60742-.2998l.17969.75586a4.70239,4.70239,0,0,1-1.93067.35986,2.69593,2.69593,0,0,1-2.85449-2.92676c0-1.751,1.03125-3.12988,2.72266-3.12988a2.45929,2.45929,0,0,1,2.39844,2.73437,4.0289,4.0289,0,0,1-.03614.4917Zm3.09472-.75586a1.503,1.503,0,0,0-1.46289-1.71484,1.74916,1.74916,0,0,0-1.61914,1.71484Z" transform="translate(-27 -117)" fill="#231f20"/><path d="M501.59766,189.05566a1.85972,1.85972,0,0,0,1.99121,2.01465,3.81874,3.81874,0,0,0,1.60742-.2998l.17969.75586a4.70242,4.70242,0,0,1-1.93067.35986,2.69593,2.69593,0,0,1-2.85449-2.92676c0-1.751,1.03125-3.12988,2.72266-3.12988a2.45928,2.45928,0,0,1,2.39843,2.73437,4.02933,4.02933,0,0,1-.03613.4917Zm3.09472-.75586a1.503,1.503,0,0,0-1.46289-1.71484,1.74916,1.74916,0,0,0-1.61914,1.71484Z" transform="translate(-27 -117)" fill="#231f20"/><path d="M507.02246,187.77246c0-.68359-.01269-1.27148-.04883-1.811h.92383l.03613,1.13916h.04786a1.74145,1.74145,0,0,1,1.60742-1.271,1.14778,1.14778,0,0,1,.2998.03564v.99561a1.5922,1.5922,0,0,0-.36035-.03613,1.48066,1.48066,0,0,0-1.415,1.35547,3.02925,3.02925,0,0,0-.04785.4917v3.09423h-1.043Z" transform="translate(-27 -117)" fill="#231f20"/><path d="M510.31055,193.21729a8.11717,8.11717,0,0,0,1.51074-4.90528,7.95021,7.95021,0,0,0-1.51074-4.86914h.81543a7.63837,7.63837,0,0,1,1.57129,4.88135,7.78489,7.78489,0,0,1-1.57129,4.89307Z" transform="translate(-27 -117)" fill="#231f20"/><path d="M483.77539,202.61572c-.05957-1.127-.13184-2.48242-.12012-3.48974h-.03613c-.27539.94726-.61133,1.95459-1.01855,3.07031l-1.42774,3.92187h-.791l-1.30762-3.85009c-.38379-1.13916-.708-2.18262-.93555-3.14209h-.02441c-.02344,1.00732-.084,2.36279-.15528,3.57373l-.21582,3.46631h-.99609l.56445-8.0835h1.33106l1.3789,3.90967c.33594.9956.61133,1.8833.81543,2.72265h.03614c.2041-.81543.49218-1.70312.85156-2.72265l1.43945-3.90967h1.33106l.5039,8.0835h-1.01953Z" transform="translate(-27 -117)" fill="#231f20"/><path d="M486.32324,201.3208a.71457.71457,0,1,1,1.42676,0,.714.714,0,1,1-1.42676,0Zm0,4.2334a.71455.71455,0,1,1,1.42676,0,.714.714,0,1,1-1.42676,0Z" transform="translate(-27 -117)" fill="#231f20"/><path d="M496.31543,203.89941l-2.00293-4.6538h-.02344l-2.00293,4.6538h-.83984l2.48242-5.52929h.74414l2.48242,5.52929Z" transform="translate(-27 -117)" fill="#231f20"/><path d="M500.709,199.354h-.02343l-1.35547.73145-.2041-.80371,1.70312-.91162h.89942v7.7959H500.709Z" transform="translate(-27 -117)" fill="#231f20"/><path d="M504.65918,205.54248a.70907.70907,0,0,1,.71875-.75586.75692.75692,0,1,1-.71875.75586Z" transform="translate(-27 -117)" fill="#231f20"/><path d="M512.23926,202.18408c0,2.65088-.9834,4.11377-2.71,4.11377-1.52344,0-2.55469-1.42724-2.5791-4.00586,0-2.61426,1.12792-4.05371,2.71093-4.05371C511.30371,198.23828,512.23926,199.70166,512.23926,202.18408Zm-4.2334.12012c0,2.02685.624,3.17822,1.583,3.17822,1.0791,0,1.59472-1.25928,1.59472-3.25049,0-1.91894-.49121-3.17822-1.583-3.17822C508.67773,199.05371,508.00586,200.18115,508.00586,202.3042Z" transform="translate(-27 -117)" fill="#231f20"/><path d="M513.29883,205.54248a.70928.70928,0,0,1,.71972-.75586.75689.75689,0,1,1-.71972.75586Z" transform="translate(-27 -117)" fill="#231f20"/><path d="M520.87891,202.18408c0,2.65088-.9834,4.11377-2.71,4.11377-1.52344,0-2.55469-1.42724-2.57911-4.00586,0-2.61426,1.12793-4.05371,2.71094-4.05371C519.94336,198.23828,520.87891,199.70166,520.87891,202.18408Zm-4.2334.12012c0,2.02685.623,3.17822,1.583,3.17822,1.0791,0,1.59472-1.25928,1.59472-3.25049,0-1.91894-.49121-3.17822-1.583-3.17822C517.31738,199.05371,516.64551,200.18115,516.64551,202.3042Z" transform="translate(-27 -117)" fill="#231f20"/><path d="M487.05273,366.77637a7.91207,7.91207,0,0,0-1.51074,4.90527,8.08167,8.08167,0,0,0,1.51074,4.86914h-.82714a7.75122,7.75122,0,0,1-1.57129-4.86914,7.91214,7.91214,0,0,1,1.57129-4.90527Z" transform="translate(-27 -117)" fill="#231f20"/><path d="M488.1709,371.18994c0-.74365-.02442-1.34326-.04883-1.895h.94824l.04785.99512h.02344a2.28194,2.28194,0,0,1,2.06348-1.12695c1.40332,0,2.458,1.187,2.458,2.95019,0,2.08692-1.27051,3.11817-2.63868,3.11817a2.034,2.034,0,0,1-1.78613-.91163h-.02441v3.1543h-1.043Zm1.043,1.54688a2.42588,2.42588,0,0,0,.04785.43164,1.62906,1.62906,0,0,0,1.583,1.23535c1.11523,0,1.76367-.91113,1.76367-2.24268,0-1.16308-.61231-2.15869-1.72754-2.15869a1.68284,1.68284,0,0,0-1.59473,1.30713,1.70636,1.70636,0,0,0-.07226.43164Z" transform="translate(-27 -117)" fill="#231f20"/><path d="M495.58594,372.38916a1.85972,1.85972,0,0,0,1.99121,2.01465,3.81868,3.81868,0,0,0,1.60742-.29981l.17969.75586a4.70235,4.70235,0,0,1-1.93067.35987,2.69593,2.69593,0,0,1-2.85449-2.92676c0-1.751,1.03125-3.12988,2.72266-3.12988a2.45929,2.45929,0,0,1,2.39844,2.73437,4.02907,4.02907,0,0,1-.03614.4917Zm3.09472-.75586a1.503,1.503,0,0,0-1.46289-1.71484,1.74916,1.74916,0,0,0-1.61914,1.71484Z" transform="translate(-27 -117)" fill="#231f20"/><path d="M501.59766,372.38916a1.85972,1.85972,0,0,0,1.99121,2.01465,3.81872,3.81872,0,0,0,1.60742-.29981l.17969.75586a4.70239,4.70239,0,0,1-1.93067.35987,2.69593,2.69593,0,0,1-2.85449-2.92676c0-1.751,1.03125-3.12988,2.72266-3.12988a2.45928,2.45928,0,0,1,2.39843,2.73437,4.0295,4.0295,0,0,1-.03613.4917Zm3.09472-.75586a1.503,1.503,0,0,0-1.46289-1.71484,1.74916,1.74916,0,0,0-1.61914,1.71484Z" transform="translate(-27 -117)" fill="#231f20"/><path d="M507.02246,371.106c0-.6836-.01269-1.27149-.04883-1.811h.92383l.03613,1.13916h.04786a1.74145,1.74145,0,0,1,1.60742-1.271,1.14736,1.14736,0,0,1,.2998.03564v.99561a1.59215,1.59215,0,0,0-.36035-.03614,1.48067,1.48067,0,0,0-1.415,1.35547,3.02937,3.02937,0,0,0-.04785.4917v3.09424h-1.043Z" transform="translate(-27 -117)" fill="#231f20"/><path d="M510.31055,376.55078a8.11714,8.11714,0,0,0,1.51074-4.90527,7.95021,7.95021,0,0,0-1.51074-4.86914h.81543a7.63834,7.63834,0,0,1,1.57129,4.88134,7.78484,7.78484,0,0,1-1.57129,4.89307Z" transform="translate(-27 -117)" fill="#231f20"/><path d="M483.77539,385.94922c-.05957-1.127-.13184-2.48242-.12012-3.48975h-.03613c-.27539.94727-.61133,1.95459-1.01855,3.07032l-1.42774,3.92187h-.791l-1.30762-3.8501c-.38379-1.13916-.708-2.18261-.93555-3.14209h-.02441c-.02344,1.00733-.084,2.3628-.15528,3.57373l-.21582,3.46631h-.99609l.56445-8.08349h1.33106l1.3789,3.90966c.33594.99561.61133,1.8833.81543,2.72266h.03614c.2041-.81543.49218-1.70313.85156-2.72266l1.43945-3.90966h1.33106l.5039,8.08349h-1.01953Z" transform="translate(-27 -117)" fill="#231f20"/><path d="M486.32324,384.6543a.71457.71457,0,1,1,1.42676,0,.714.714,0,1,1-1.42676,0Zm0,4.2334a.71455.71455,0,1,1,1.42676,0,.714.714,0,1,1-1.42676,0Z" transform="translate(-27 -117)" fill="#231f20"/><path d="M496.31543,387.23291l-2.00293-4.65381h-.02344l-2.00293,4.65381h-.83984l2.48242-5.5293h.74414l2.48242,5.5293Z" transform="translate(-27 -117)" fill="#231f20"/><path d="M500.709,382.6875h-.02343l-1.35547.73145-.2041-.80372,1.70312-.91162h.89942v7.7959H500.709Z" transform="translate(-27 -117)" fill="#231f20"/><path d="M504.65918,388.876a.70907.70907,0,0,1,.71875-.75586.75692.75692,0,1,1-.71875.75586Z" transform="translate(-27 -117)" fill="#231f20"/><path d="M512.23926,385.51758c0,2.65088-.9834,4.11377-2.71,4.11377-1.52344,0-2.55469-1.42725-2.5791-4.00586,0-2.61426,1.12792-4.05371,2.71093-4.05371C511.30371,381.57178,512.23926,383.03516,512.23926,385.51758Zm-4.2334.12012c0,2.02685.624,3.17822,1.583,3.17822,1.0791,0,1.59472-1.25928,1.59472-3.25049,0-1.91895-.49121-3.17822-1.583-3.17822C508.67773,382.38721,508.00586,383.51465,508.00586,385.6377Z" transform="translate(-27 -117)" fill="#231f20"/><path d="M513.29883,388.876a.70928.70928,0,0,1,.71972-.75586.75689.75689,0,1,1-.71972.75586Z" transform="translate(-27 -117)" fill="#231f20"/><path d="M520.87891,385.51758c0,2.65088-.9834,4.11377-2.71,4.11377-1.52344,0-2.55469-1.42725-2.57911-4.00586,0-2.61426,1.12793-4.05371,2.71094-4.05371C519.94336,381.57178,520.87891,383.03516,520.87891,385.51758Zm-4.2334.12012c0,2.02685.623,3.17822,1.583,3.17822,1.0791,0,1.59472-1.25928,1.59472-3.25049,0-1.91895-.49121-3.17822-1.583-3.17822C517.31738,382.38721,516.64551,383.51465,516.64551,385.6377Z" transform="translate(-27 -117)" fill="#231f20"/><path d="M495.418,117.665a7.91207,7.91207,0,0,0-1.51074,4.90527,8.08167,8.08167,0,0,0,1.51074,4.86914h-.82715a7.75122,7.75122,0,0,1-1.57129-4.86914,7.91214,7.91214,0,0,1,1.57129-4.90527Z" transform="translate(-27 -117)" fill="#231f20"/><path d="M501.78906,123.03809a2.837,2.837,0,0,1-2.89062,3.082,2.75949,2.75949,0,0,1-2.78223-2.98633,2.83373,2.83373,0,0,1,2.87793-3.082A2.749,2.749,0,0,1,501.78906,123.03809Zm-4.60547.05957c0,1.27148.73145,2.23095,1.7627,2.23095,1.00781,0,1.76269-.94726,1.76269-2.25488,0-.9834-.49121-2.23047-1.73828-2.23047C497.72266,120.84326,497.18359,121.99463,497.18359,123.09766Z" transform="translate(-27 -117)" fill="#231f20"/><path d="M503.124,122.07861c0-.74365-.02441-1.34326-.04882-1.895h.94824l.04785.99512h.02344a2.28192,2.28192,0,0,1,2.06347-1.12695c1.40332,0,2.458,1.187,2.458,2.95019,0,2.08692-1.27051,3.11817-2.63867,3.11817a2.034,2.034,0,0,1-1.78613-.91162H504.167v3.15429h-1.043Zm1.043,1.54688a2.4268,2.4268,0,0,0,.04785.43164,1.62907,1.62907,0,0,0,1.583,1.23535c1.11524,0,1.76367-.91113,1.76367-2.24268,0-1.16308-.6123-2.15869-1.72754-2.15869a1.68283,1.68283,0,0,0-1.59472,1.30713,1.70592,1.70592,0,0,0-.07227.43164Z" transform="translate(-27 -117)" fill="#231f20"/><path d="M511.22266,118.5166v1.667h1.51172v.80323h-1.51172v3.13037c0,.71972.2041,1.12744.792,1.12744a2.36332,2.36332,0,0,0,.61133-.07178l.04785.79151a2.57832,2.57832,0,0,1-.93555.144,1.46277,1.46277,0,0,1-1.13867-.44385,2.15109,2.15109,0,0,1-.4082-1.51123v-3.1665H509.292v-.80323h.89942V118.792Z" transform="translate(-27 -117)" fill="#231f20"/><path d="M515.09863,118.55225a.65383.65383,0,0,1-1.30761,0,.64367.64367,0,0,1,.66015-.65967A.6266.6266,0,0,1,515.09863,118.55225Zm-1.1748,7.436v-5.80469h1.05469v5.80469Z" transform="translate(-27 -117)" fill="#231f20"/><path d="M521.98438,123.03809a2.837,2.837,0,0,1-2.89063,3.082,2.75949,2.75949,0,0,1-2.78223-2.98633,2.83373,2.83373,0,0,1,2.87793-3.082A2.749,2.749,0,0,1,521.98438,123.03809Zm-4.60547.05957c0,1.27148.73144,2.23095,1.76269,2.23095,1.00781,0,1.7627-.94726,1.7627-2.25488,0-.9834-.49121-2.23047-1.73828-2.23047C517.918,120.84326,517.37891,121.99463,517.37891,123.09766Z" transform="translate(-27 -117)" fill="#231f20"/><path d="M523.31934,121.75439c0-.5996-.0127-1.0913-.04883-1.5708h.93554l.06055.95948H524.29a2.13531,2.13531,0,0,1,1.91894-1.09131c.80372,0,2.05079.47949,2.05079,2.47021v3.46631h-1.05469v-3.34619c0-.93555-.34766-1.71484-1.34375-1.71484a1.49941,1.49941,0,0,0-1.415,1.0791,1.52081,1.52081,0,0,0-.07227.4917v3.49023h-1.05468Z" transform="translate(-27 -117)" fill="#231f20"/><path d="M533.19336,125.98828l-.084-.73144h-.03614a2.16149,2.16149,0,0,1-1.77539.86328,1.65362,1.65362,0,0,1-1.77441-1.667c0-1.40332,1.24707-2.17089,3.49023-2.15869v-.12011a1.1967,1.1967,0,0,0-1.31933-1.34327,2.89593,2.89593,0,0,0-1.51172.43165l-.23926-.69532a3.59811,3.59811,0,0,1,1.90625-.51562c1.77539,0,2.207,1.21094,2.207,2.37451v2.1709a8.24659,8.24659,0,0,0,.0957,1.39111Zm-.15625-2.9624c-1.15137-.02393-2.458.18017-2.458,1.30713a.93387.93387,0,0,0,.99512,1.00781,1.44436,1.44436,0,0,0,1.40332-.97168,1.09716,1.09716,0,0,0,.05957-.33594Z" transform="translate(-27 -117)" fill="#231f20"/><path d="M535.76367,117.47314h1.05469v8.51514h-1.05469Z" transform="translate(-27 -117)" fill="#231f20"/><path d="M541.13965,122.07861c0-.74365-.02442-1.34326-.04883-1.895h.94824l.04785.99512h.02344a2.28194,2.28194,0,0,1,2.06348-1.12695c1.40332,0,2.458,1.187,2.458,2.95019,0,2.08692-1.27051,3.11817-2.63868,3.11817a2.034,2.034,0,0,1-1.78613-.91162h-.02441v3.15429h-1.043Zm1.043,1.54688a2.42588,2.42588,0,0,0,.04785.43164,1.62906,1.62906,0,0,0,1.583,1.23535c1.11523,0,1.76367-.91113,1.76367-2.24268,0-1.16308-.61231-2.15869-1.72754-2.15869a1.68284,1.68284,0,0,0-1.59473,1.30713,1.70636,1.70636,0,0,0-.07226.43164Z" transform="translate(-27 -117)" fill="#231f20"/><path d="M548.55469,123.27783a1.85972,1.85972,0,0,0,1.99121,2.01465,3.81886,3.81886,0,0,0,1.60742-.2998l.17969.75586a4.70255,4.70255,0,0,1-1.93067.35986,2.69593,2.69593,0,0,1-2.85449-2.92676c0-1.751,1.03125-3.12988,2.72266-3.12988a2.45929,2.45929,0,0,1,2.39844,2.73437,4.02907,4.02907,0,0,1-.03614.4917Zm3.09472-.75586a1.503,1.503,0,0,0-1.46289-1.71484,1.74916,1.74916,0,0,0-1.61914,1.71484Z" transform="translate(-27 -117)" fill="#231f20"/><path d="M554.56641,123.27783a1.85972,1.85972,0,0,0,1.99121,2.01465,3.8189,3.8189,0,0,0,1.60742-.2998l.17969.75586a4.70259,4.70259,0,0,1-1.93067.35986,2.69593,2.69593,0,0,1-2.85449-2.92676c0-1.751,1.03125-3.12988,2.72266-3.12988a2.45928,2.45928,0,0,1,2.39843,2.73437,4.0295,4.0295,0,0,1-.03613.4917Zm3.09472-.75586a1.503,1.503,0,0,0-1.46289-1.71484,1.74916,1.74916,0,0,0-1.61914,1.71484Z" transform="translate(-27 -117)" fill="#231f20"/><path d="M559.99121,121.99463c0-.68359-.01269-1.27149-.04883-1.811h.92383l.03613,1.13916h.04786a1.74145,1.74145,0,0,1,1.60742-1.271,1.14256,1.14256,0,0,1,.2998.03564v.99561a1.5922,1.5922,0,0,0-.36035-.03613,1.48139,1.48139,0,0,0-1.415,1.35546,3.02948,3.02948,0,0,0-.04785.4917v3.09424h-1.043Z" transform="translate(-27 -117)" fill="#231f20"/><path d="M563.2793,127.43945a8.11714,8.11714,0,0,0,1.51074-4.90527,7.95021,7.95021,0,0,0-1.51074-4.86914h.81543a7.63835,7.63835,0,0,1,1.57129,4.88135,7.78483,7.78483,0,0,1-1.57129,4.89306Z" transform="translate(-27 -117)" fill="#231f20"/><path d="M508.50586,140.38818v-8.08349h1.13965l2.59082,4.08984a22.865,22.865,0,0,1,1.45117,2.62647l.02344-.01221c-.09571-1.0791-.11914-2.0625-.11914-3.32227v-3.38183h.9834v8.08349h-1.05567l-2.56641-4.10156a25.82707,25.82707,0,0,1-1.51171-2.69873l-.03614.01221c.06055,1.019.084,1.99072.084,3.334v3.4541Z" transform="translate(-27 -117)" fill="#231f20"/><path d="M516.11426,135.543a.71458.71458,0,1,1,1.42676,0,.714.714,0,1,1-1.42676,0Zm0,4.2334a.71455.71455,0,1,1,1.42676,0,.714.714,0,1,1-1.42676,0Z" transform="translate(-27 -117)" fill="#231f20"/><path d="M526.10645,138.12158l-2.00293-4.65381h-.02344l-2.00293,4.65381h-.83985l2.48243-5.52929h.74414l2.48242,5.52929Z" transform="translate(-27 -117)" fill="#231f20"/><path d="M528.21,140.38818v-.64746l.82715-.80371c1.99121-1.895,2.89062-2.90234,2.90234-4.07763a1.39092,1.39092,0,0,0-1.54687-1.52344,2.65354,2.65354,0,0,0-1.65528.65967l-.33593-.74366a3.42322,3.42322,0,0,1,2.207-.7915,2.19382,2.19382,0,0,1,2.38672,2.26709c0,1.439-1.04395,2.60254-2.68653,4.18555l-.624.57568v.02393h3.50195v.87548Z" transform="translate(-27 -117)" fill="#231f20"/><path d="M534.4502,139.76465a.70928.70928,0,0,1,.71972-.75586.75689.75689,0,1,1-.71972.75586Z" transform="translate(-27 -117)" fill="#231f20"/><path d="M542.03027,136.40625c0,2.65088-.98339,4.11377-2.71,4.11377-1.52343,0-2.55469-1.42725-2.5791-4.00586,0-2.61426,1.12793-4.05371,2.71094-4.05371C541.09473,132.46045,542.03027,133.92383,542.03027,136.40625Zm-4.23339.12012c0,2.02685.623,3.17822,1.583,3.17822,1.0791,0,1.59473-1.25928,1.59473-3.25049,0-1.91894-.49121-3.17822-1.583-3.17822C538.46875,133.27588,537.79688,134.40332,537.79688,136.52637Z" transform="translate(-27 -117)" fill="#231f20"/><path d="M543.08984,139.76465a.70908.70908,0,0,1,.71875-.75586.75692.75692,0,1,1-.71875.75586Z" transform="translate(-27 -117)" fill="#231f20"/><path d="M550.66992,136.40625c0,2.65088-.9834,4.11377-2.71,4.11377-1.52344,0-2.55469-1.42725-2.5791-4.00586,0-2.61426,1.12793-4.05371,2.71094-4.05371C549.73438,132.46045,550.66992,133.92383,550.66992,136.40625Zm-4.2334.12012c0,2.02685.624,3.17822,1.583,3.17822,1.0791,0,1.59473-1.25928,1.59473-3.25049,0-1.91894-.49121-3.17822-1.583-3.17822C547.1084,133.27588,546.43652,134.40332,546.43652,136.52637Z" transform="translate(-27 -117)" fill="#231f20"/><path d="M495.418,298.332a7.91209,7.91209,0,0,0-1.51074,4.90527,8.0817,8.0817,0,0,0,1.51074,4.86915h-.82715a7.75128,7.75128,0,0,1-1.57129-4.86915,7.91216,7.91216,0,0,1,1.57129-4.90527Z" transform="translate(-27 -117)" fill="#231f20"/><path d="M501.78906,303.70508a2.837,2.837,0,0,1-2.89062,3.082,2.75949,2.75949,0,0,1-2.78223-2.98633,2.83373,2.83373,0,0,1,2.87793-3.082A2.749,2.749,0,0,1,501.78906,303.70508Zm-4.60547.05957c0,1.27148.73145,2.231,1.7627,2.231,1.00781,0,1.76269-.94727,1.76269-2.25489,0-.9834-.49121-2.23047-1.73828-2.23047C497.72266,301.51025,497.18359,302.66162,497.18359,303.76465Z" transform="translate(-27 -117)" fill="#231f20"/><path d="M503.124,302.74561c0-.74366-.02441-1.34327-.04882-1.895h.94824l.04785.99511h.02344a2.28192,2.28192,0,0,1,2.06347-1.127c1.40332,0,2.458,1.187,2.458,2.9502,0,2.08691-1.27051,3.11816-2.63867,3.11816a2.034,2.034,0,0,1-1.78613-.91162H504.167v3.1543h-1.043Zm1.043,1.54687a2.4267,2.4267,0,0,0,.04785.43164,1.62907,1.62907,0,0,0,1.583,1.23535c1.11524,0,1.76367-.91113,1.76367-2.24267,0-1.16309-.6123-2.15869-1.72754-2.15869a1.68282,1.68282,0,0,0-1.59472,1.30712,1.70592,1.70592,0,0,0-.07227.43165Z" transform="translate(-27 -117)" fill="#231f20"/><path d="M511.22266,299.18359v1.667h1.51172v.80322h-1.51172v3.13037c0,.71973.2041,1.12744.792,1.12744a2.36332,2.36332,0,0,0,.61133-.07178l.04785.79151a2.57832,2.57832,0,0,1-.93555.144,1.46277,1.46277,0,0,1-1.13867-.44385,2.15108,2.15108,0,0,1-.4082-1.51123v-3.1665H509.292v-.80322h.89942V299.459Z" transform="translate(-27 -117)" fill="#231f20"/><path d="M515.09863,299.21924a.65383.65383,0,0,1-1.30761,0,.64368.64368,0,0,1,.66015-.65967A.62661.62661,0,0,1,515.09863,299.21924Zm-1.1748,7.436v-5.80468h1.05469v5.80468Z" transform="translate(-27 -117)" fill="#231f20"/><path d="M521.98438,303.70508a2.837,2.837,0,0,1-2.89063,3.082,2.75949,2.75949,0,0,1-2.78223-2.98633,2.83373,2.83373,0,0,1,2.87793-3.082A2.749,2.749,0,0,1,521.98438,303.70508Zm-4.60547.05957c0,1.27148.73144,2.231,1.76269,2.231,1.00781,0,1.7627-.94727,1.7627-2.25489,0-.9834-.49121-2.23047-1.73828-2.23047C517.918,301.51025,517.37891,302.66162,517.37891,303.76465Z" transform="translate(-27 -117)" fill="#231f20"/><path d="M523.31934,302.42139c0-.59961-.0127-1.09131-.04883-1.5708h.93554l.06055.95947H524.29a2.13531,2.13531,0,0,1,1.91894-1.09131c.80372,0,2.05079.47949,2.05079,2.47021v3.46631h-1.05469v-3.34619c0-.93554-.34766-1.71484-1.34375-1.71484a1.49941,1.49941,0,0,0-1.415,1.0791,1.52085,1.52085,0,0,0-.07227.4917v3.49023h-1.05468Z" transform="translate(-27 -117)" fill="#231f20"/><path d="M533.19336,306.65527l-.084-.73144h-.03614a2.16149,2.16149,0,0,1-1.77539.86328,1.65362,1.65362,0,0,1-1.77441-1.667c0-1.40332,1.24707-2.1709,3.49023-2.15869v-.12012a1.19669,1.19669,0,0,0-1.31933-1.34326,2.896,2.896,0,0,0-1.51172.43164l-.23926-.69531a3.598,3.598,0,0,1,1.90625-.51563c1.77539,0,2.207,1.21094,2.207,2.37451v2.1709a8.24659,8.24659,0,0,0,.0957,1.39111Zm-.15625-2.9624c-1.15137-.02392-2.458.18018-2.458,1.30713a.93387.93387,0,0,0,.99512,1.00781,1.44436,1.44436,0,0,0,1.40332-.97168,1.09709,1.09709,0,0,0,.05957-.33593Z" transform="translate(-27 -117)" fill="#231f20"/><path d="M535.76367,298.14014h1.05469v8.51513h-1.05469Z" transform="translate(-27 -117)" fill="#231f20"/><path d="M541.13965,302.74561c0-.74366-.02442-1.34327-.04883-1.895h.94824l.04785.99511h.02344a2.28194,2.28194,0,0,1,2.06348-1.127c1.40332,0,2.458,1.187,2.458,2.9502,0,2.08691-1.27051,3.11816-2.63868,3.11816a2.034,2.034,0,0,1-1.78613-.91162h-.02441v3.1543h-1.043Zm1.043,1.54687a2.42577,2.42577,0,0,0,.04785.43164,1.62906,1.62906,0,0,0,1.583,1.23535c1.11523,0,1.76367-.91113,1.76367-2.24267,0-1.16309-.61231-2.15869-1.72754-2.15869a1.68283,1.68283,0,0,0-1.59473,1.30712,1.70636,1.70636,0,0,0-.07226.43165Z" transform="translate(-27 -117)" fill="#231f20"/><path d="M548.55469,303.94482a1.85972,1.85972,0,0,0,1.99121,2.01465,3.8187,3.8187,0,0,0,1.60742-.2998l.17969.75586a4.70239,4.70239,0,0,1-1.93067.35986,2.69593,2.69593,0,0,1-2.85449-2.92676c0-1.751,1.03125-3.12988,2.72266-3.12988a2.45929,2.45929,0,0,1,2.39844,2.73437,4.0289,4.0289,0,0,1-.03614.4917Zm3.09472-.75586a1.503,1.503,0,0,0-1.46289-1.71484,1.74916,1.74916,0,0,0-1.61914,1.71484Z" transform="translate(-27 -117)" fill="#231f20"/><path d="M554.56641,303.94482a1.85972,1.85972,0,0,0,1.99121,2.01465,3.81874,3.81874,0,0,0,1.60742-.2998l.17969.75586a4.70242,4.70242,0,0,1-1.93067.35986,2.69593,2.69593,0,0,1-2.85449-2.92676c0-1.751,1.03125-3.12988,2.72266-3.12988a2.45928,2.45928,0,0,1,2.39843,2.73437,4.02933,4.02933,0,0,1-.03613.4917Zm3.09472-.75586a1.503,1.503,0,0,0-1.46289-1.71484,1.74916,1.74916,0,0,0-1.61914,1.71484Z" transform="translate(-27 -117)" fill="#231f20"/><path d="M559.99121,302.66162c0-.68359-.01269-1.27148-.04883-1.811h.92383l.03613,1.13916h.04786a1.74145,1.74145,0,0,1,1.60742-1.271,1.14256,1.14256,0,0,1,.2998.03564V301.75a1.5922,1.5922,0,0,0-.36035-.03613,1.48139,1.48139,0,0,0-1.415,1.35547,3.02925,3.02925,0,0,0-.04785.4917v3.09423h-1.043Z" transform="translate(-27 -117)" fill="#231f20"/><path d="M563.2793,308.10645a8.11717,8.11717,0,0,0,1.51074-4.90528,7.95021,7.95021,0,0,0-1.51074-4.86914h.81543a7.63837,7.63837,0,0,1,1.57129,4.88135,7.78489,7.78489,0,0,1-1.57129,4.89307Z" transform="translate(-27 -117)" fill="#231f20"/><path d="M508.50586,321.05518v-8.0835h1.13965l2.59082,4.08984a22.865,22.865,0,0,1,1.45117,2.62647l.02344-.01221c-.09571-1.0791-.11914-2.0625-.11914-3.32226v-3.38184h.9834v8.0835h-1.05567l-2.56641-4.10157a25.82707,25.82707,0,0,1-1.51171-2.69873l-.03614.01221c.06055,1.019.084,1.99072.084,3.334v3.45411Z" transform="translate(-27 -117)" fill="#231f20"/><path d="M516.11426,316.21a.71458.71458,0,1,1,1.42676,0,.714.714,0,1,1-1.42676,0Zm0,4.2334a.71455.71455,0,1,1,1.42676,0,.714.714,0,1,1-1.42676,0Z" transform="translate(-27 -117)" fill="#231f20"/><path d="M526.10645,318.78857l-2.00293-4.6538h-.02344l-2.00293,4.6538h-.83985l2.48243-5.52929h.74414l2.48242,5.52929Z" transform="translate(-27 -117)" fill="#231f20"/><path d="M528.21,321.05518v-.64747l.82715-.80371c1.99121-1.895,2.89062-2.90234,2.90234-4.07763a1.39092,1.39092,0,0,0-1.54687-1.52344,2.65354,2.65354,0,0,0-1.65528.65967l-.33593-.74365a3.42317,3.42317,0,0,1,2.207-.79151,2.19382,2.19382,0,0,1,2.38672,2.26709c0,1.439-1.04395,2.60254-2.68653,4.18555l-.624.57568v.02393h3.50195v.87549Z" transform="translate(-27 -117)" fill="#231f20"/><path d="M534.4502,320.43164a.70928.70928,0,0,1,.71972-.75586.75689.75689,0,1,1-.71972.75586Z" transform="translate(-27 -117)" fill="#231f20"/><path d="M542.03027,317.07324c0,2.65088-.98339,4.11377-2.71,4.11377-1.52343,0-2.55469-1.42724-2.5791-4.00586,0-2.61426,1.12793-4.05371,2.71094-4.05371C541.09473,313.12744,542.03027,314.59082,542.03027,317.07324Zm-4.23339.12012c0,2.02685.623,3.17822,1.583,3.17822,1.0791,0,1.59473-1.25928,1.59473-3.25049,0-1.91894-.49121-3.17822-1.583-3.17822C538.46875,313.94287,537.79688,315.07031,537.79688,317.19336Z" transform="translate(-27 -117)" fill="#231f20"/><path d="M543.08984,320.43164a.70908.70908,0,0,1,.71875-.75586.75692.75692,0,1,1-.71875.75586Z" transform="translate(-27 -117)" fill="#231f20"/><path d="M550.66992,317.07324c0,2.65088-.9834,4.11377-2.71,4.11377-1.52344,0-2.55469-1.42724-2.5791-4.00586,0-2.61426,1.12793-4.05371,2.71094-4.05371C549.73438,313.12744,550.66992,314.59082,550.66992,317.07324Zm-4.2334.12012c0,2.02685.624,3.17822,1.583,3.17822,1.0791,0,1.59473-1.25928,1.59473-3.25049,0-1.91894-.49121-3.17822-1.583-3.17822C547.1084,313.94287,546.43652,315.07031,546.43652,317.19336Z" transform="translate(-27 -117)" fill="#231f20"/><path d="M254.21924,127.083h1.04394v3.898h.03614c.21582-.312.43164-.59961.63574-.86377l2.4707-3.03418h1.29492l-2.92675,3.43017,3.15429,4.65332h-1.23535l-2.66211-3.96972-.76758.8872v3.08252h-1.04394Z" transform="translate(-27 -117)" fill="#231f20"/><path d="M260.69971,130.32129a.71457.71457,0,1,1,1.42675,0,.714.714,0,1,1-1.42675,0Zm0,4.2334a.71454.71454,0,1,1,1.42675,0,.714.714,0,1,1-1.42675,0Z" transform="translate(-27 -117)" fill="#231f20"/><path d="M270.69189,132.8999l-2.00293-4.65381h-.02343l-2.00293,4.65381h-.83985l2.48243-5.52929h.74414l2.48242,5.52929Z" transform="translate(-27 -117)" fill="#231f20"/><path d="M275.08545,128.354H275.062l-1.35547.73194-.2041-.80371,1.70313-.91162h.89941v7.79589h-1.01953Z" transform="translate(-27 -117)" fill="#231f20"/><path d="M279.03564,134.543a.70908.70908,0,0,1,.71875-.75586.75692.75692,0,1,1-.71875.75586Z" transform="translate(-27 -117)" fill="#231f20"/><path d="M286.61572,131.18457c0,2.65088-.9834,4.11377-2.71,4.11377-1.52344,0-2.55469-1.42725-2.5791-4.00586,0-2.61426,1.12793-4.05371,2.71094-4.05371C285.68018,127.23877,286.61572,128.70215,286.61572,131.18457Zm-4.2334.12012c0,2.02685.624,3.17822,1.583,3.17822,1.0791,0,1.59473-1.25928,1.59473-3.25,0-1.91895-.49121-3.17871-1.583-3.17871C283.0542,128.0542,282.38232,129.18164,282.38232,131.30469Z" transform="translate(-27 -117)" fill="#231f20"/><path d="M287.67529,134.543a.70929.70929,0,0,1,.71973-.75586.75689.75689,0,1,1-.71973.75586Z" transform="translate(-27 -117)" fill="#231f20"/><path d="M295.25537,131.18457c0,2.65088-.9834,4.11377-2.71,4.11377-1.52344,0-2.55469-1.42725-2.5791-4.00586,0-2.61426,1.12793-4.05371,2.71094-4.05371C294.31982,127.23877,295.25537,128.70215,295.25537,131.18457Zm-4.2334.12012c0,2.02685.623,3.17822,1.583,3.17822,1.0791,0,1.59473-1.25928,1.59473-3.25,0-1.91895-.49121-3.17871-1.583-3.17871C291.69385,128.0542,291.022,129.18164,291.022,131.30469Z" transform="translate(-27 -117)" fill="#231f20"/><path d="M121.60889,363.83887c-.05957-1.12744-.13184-2.48291-.12012-3.49024h-.03613c-.27539.94727-.61133,1.95508-1.01856,3.07032l-1.42773,3.92187h-.791l-1.30762-3.8501c-.38378-1.13916-.708-2.18261-.93554-3.14209h-.02442c-.02343,1.00733-.084,2.3628-.15527,3.57373l-.21582,3.46631h-.99609l.56445-8.08349h1.33105l1.37891,3.90966c.33594.99561.61133,1.8833.81543,2.72266h.03613c.2041-.81543.49219-1.70312.85157-2.72266l1.43945-3.90966h1.33105l.50391,8.08349H121.813Z" transform="translate(-27 -117)" fill="#231f20"/><path d="M124.15674,362.54346a.71457.71457,0,1,1,1.42676,0,.714.714,0,1,1-1.42676,0Zm0,4.2334a.71455.71455,0,1,1,1.42676,0,.714.714,0,1,1-1.42676,0Z" transform="translate(-27 -117)" fill="#231f20"/><path d="M129.14893,364.87012c-.04786-1.19922.59961-1.811,1.42675-1.811a3.77115,3.77115,0,0,1,1.69141.53955,3.78563,3.78563,0,0,0,1.499.50391c.43164,0,.63575-.34766.64746-1.00733h.71973c.06055,1.34327-.63574,1.811-1.37891,1.811a4.04982,4.04982,0,0,1-1.73925-.52783,3.66681,3.66681,0,0,0-1.43946-.52783c-.43164,0-.69531.2998-.71972,1.01953Z" transform="translate(-27 -117)" fill="#231f20"/><path d="M138.54248,360.57617H138.519l-1.35547.73194-.2041-.80372,1.70313-.91162h.89941v7.7959h-1.01953Z" transform="translate(-27 -117)" fill="#231f20"/><path d="M142.49268,366.76514a.70907.70907,0,0,1,.71875-.75586.75692.75692,0,1,1-.71875.75586Z" transform="translate(-27 -117)" fill="#231f20"/><path d="M150.07275,363.40674c0,2.65088-.98339,4.11377-2.71,4.11377-1.52343,0-2.55468-1.42725-2.5791-4.00586,0-2.61426,1.12793-4.05371,2.71094-4.05371C149.13721,359.46094,150.07275,360.92432,150.07275,363.40674Zm-4.23339.12012c0,2.02685.624,3.17822,1.583,3.17822,1.0791,0,1.59473-1.25928,1.59473-3.25,0-1.91895-.49121-3.17871-1.583-3.17871C146.51123,360.27637,145.83936,361.40381,145.83936,363.52686Z" transform="translate(-27 -117)" fill="#231f20"/><path d="M151.13232,366.76514a.70929.70929,0,0,1,.71973-.75586.75689.75689,0,1,1-.71973.75586Z" transform="translate(-27 -117)" fill="#231f20"/><path d="M158.7124,363.40674c0,2.65088-.9834,4.11377-2.71,4.11377-1.52344,0-2.55469-1.42725-2.5791-4.00586,0-2.61426,1.12793-4.05371,2.71094-4.05371C157.77686,359.46094,158.7124,360.92432,158.7124,363.40674Zm-4.2334.12012c0,2.02685.623,3.17822,1.583,3.17822,1.0791,0,1.59473-1.25928,1.59473-3.25,0-1.91895-.49121-3.17871-1.583-3.17871C155.15088,360.27637,154.479,361.40381,154.479,363.52686Z" transform="translate(-27 -117)" fill="#231f20"/><path d="M329.6084,189.17236c-.05957-1.12744-.13184-2.48291-.12012-3.49023h-.03613c-.27539.94726-.61133,1.95508-1.01856,3.07031l-1.42773,3.92188h-.791l-1.30761-3.8501c-.38379-1.13916-.708-2.18262-.93555-3.14209h-.02441c-.02344,1.00732-.084,2.36279-.15528,3.57373l-.21582,3.46631h-.99609l.56445-8.0835h1.33106l1.3789,3.90967c.33594.99561.61133,1.8833.81543,2.72266h.03613c.20411-.81543.49219-1.70313.85157-2.72266l1.43945-3.90967h1.33105l.50391,8.0835H329.8125Z" transform="translate(-27 -117)" fill="#231f20"/><path d="M332.15625,187.877a.71457.71457,0,1,1,1.42676,0,.714.714,0,1,1-1.42676,0Zm0,4.2334a.71455.71455,0,1,1,1.42676,0,.714.714,0,1,1-1.42676,0Z" transform="translate(-27 -117)" fill="#231f20"/><path d="M337.14844,190.20361c-.04785-1.19922.59961-1.811,1.42676-1.811a3.77116,3.77116,0,0,1,1.6914.53955,3.78584,3.78584,0,0,0,1.499.50391c.43165,0,.63575-.34766.64747-1.00733h.71972c.06055,1.34326-.63574,1.811-1.3789,1.811a4.04986,4.04986,0,0,1-1.73926-.52784,3.66693,3.66693,0,0,0-1.43945-.52783c-.43165,0-.69532.29981-.71973,1.01953Z" transform="translate(-27 -117)" fill="#231f20"/><path d="M346.542,185.90967h-.02344l-1.35546.73193-.20411-.80371,1.70313-.91162h.89941v7.7959H346.542Z" transform="translate(-27 -117)" fill="#231f20"/><path d="M350.49219,192.09863a.70908.70908,0,0,1,.71875-.75586.75692.75692,0,1,1-.71875.75586Z" transform="translate(-27 -117)" fill="#231f20"/><path d="M358.07227,188.74023c0,2.65088-.9834,4.11377-2.71,4.11377-1.52343,0-2.55468-1.42724-2.5791-4.00586,0-2.61425,1.12793-4.05371,2.71094-4.05371C357.13672,184.79443,358.07227,186.25781,358.07227,188.74023Zm-4.2334.12012c0,2.02686.624,3.17822,1.583,3.17822,1.0791,0,1.59472-1.25927,1.59472-3.25,0-1.91894-.49121-3.17871-1.583-3.17871C354.51074,185.60986,353.83887,186.7373,353.83887,188.86035Z" transform="translate(-27 -117)" fill="#231f20"/><path d="M359.13184,192.09863a.70928.70928,0,0,1,.71972-.75586.75689.75689,0,1,1-.71972.75586Z" transform="translate(-27 -117)" fill="#231f20"/><path d="M366.71191,188.74023c0,2.65088-.98339,4.11377-2.71,4.11377-1.52343,0-2.55468-1.42724-2.5791-4.00586,0-2.61425,1.12793-4.05371,2.71094-4.05371C365.77637,184.79443,366.71191,186.25781,366.71191,188.74023Zm-4.23339.12012c0,2.02686.623,3.17822,1.583,3.17822,1.0791,0,1.59473-1.25927,1.59473-3.25,0-1.91894-.49121-3.17871-1.583-3.17871C363.15039,185.60986,362.47852,186.7373,362.47852,188.86035Z" transform="translate(-27 -117)" fill="#231f20"/><path d="M194.11719,268.333v-8.0835h1.13965l2.59082,4.08985a22.86413,22.86413,0,0,1,1.45117,2.62646l.02344-.01221c-.09571-1.0791-.11915-2.0625-.11915-3.32177v-3.38233h.9834v8.0835h-1.05566l-2.56641-4.10156a25.83016,25.83016,0,0,1-1.51172-2.69874l-.03613.01221c.06055,1.019.084,1.99072.084,3.334v3.4541Z" transform="translate(-27 -117)" fill="#231f20"/><path d="M201.72559,263.48779a.71457.71457,0,1,1,1.42675,0,.714.714,0,1,1-1.42675,0Zm0,4.2334a.71454.71454,0,1,1,1.42675,0,.714.714,0,1,1-1.42675,0Z" transform="translate(-27 -117)" fill="#231f20"/><path d="M211.71875,266.06641l-2.00293-4.65381h-.02344l-2.00293,4.65381h-.83984l2.48242-5.5293h.74414l2.48242,5.5293Z" transform="translate(-27 -117)" fill="#231f20"/><path d="M214.07324,267.12158a3.52594,3.52594,0,0,0,1.72656.4917c1.35547,0,1.7754-.86328,1.7627-1.51123-.01172-1.09131-.99512-1.55908-2.01465-1.55908H214.96v-.79151h.58789c.76758,0,1.73926-.3955,1.73926-1.31933,0-.62354-.39551-1.17529-1.36719-1.17529a2.8651,2.8651,0,0,0-1.55957.51562l-.27539-.76758a3.70447,3.70447,0,0,1,2.03906-.59961c1.53516,0,2.23047.91162,2.23047,1.85889a1.93523,1.93523,0,0,1-1.43945,1.835v.02442a2.03,2.03,0,0,1,1.73926,2.00244c0,1.24756-.97168,2.33886-2.84278,2.33886a3.96108,3.96108,0,0,1-2.02636-.52783Z" transform="translate(-27 -117)" fill="#231f20"/><path d="M220.06152,267.70947a.70929.70929,0,0,1,.71973-.75586.75689.75689,0,1,1-.71973.75586Z" transform="translate(-27 -117)" fill="#231f20"/><path d="M227.6416,264.35107c0,2.65088-.9834,4.11377-2.71,4.11377-1.52344,0-2.55469-1.42724-2.5791-4.00586,0-2.61425,1.12793-4.05371,2.71094-4.05371C226.70605,260.40527,227.6416,261.86865,227.6416,264.35107Zm-4.2334.12012c0,2.02686.62305,3.17822,1.583,3.17822,1.0791,0,1.59473-1.25927,1.59473-3.25,0-1.91894-.49121-3.17871-1.583-3.17871C224.08008,261.2207,223.4082,262.34814,223.4082,264.47119Z" transform="translate(-27 -117)" fill="#231f20"/><path d="M228.70117,267.70947a.70908.70908,0,0,1,.71875-.75586.75692.75692,0,1,1-.71875.75586Z" transform="translate(-27 -117)" fill="#231f20"/><path d="M236.28125,264.35107c0,2.65088-.9834,4.11377-2.71,4.11377-1.52344,0-2.55469-1.42724-2.5791-4.00586,0-2.61425,1.12793-4.05371,2.71093-4.05371C235.3457,260.40527,236.28125,261.86865,236.28125,264.35107Zm-4.2334.12012c0,2.02686.624,3.17822,1.583,3.17822,1.0791,0,1.59473-1.25927,1.59473-3.25,0-1.91894-.49121-3.17871-1.583-3.17871C232.71973,261.2207,232.04785,262.34814,232.04785,264.47119Z" transform="translate(-27 -117)" fill="#231f20"/><path d="M116.27539,324.9165h1.04395v3.898h.03613c.21582-.312.43164-.59961.63574-.86377l2.4707-3.03418h1.29493l-2.92676,3.43018L121.98438,333H120.749l-2.66211-3.96973-.76757.88721V333h-1.04395Z" transform="translate(-27 -117)" fill="#231f20"/><path d="M122.75586,328.15479a.71458.71458,0,1,1,1.42676,0,.714.714,0,1,1-1.42676,0Zm0,4.23339a.71455.71455,0,1,1,1.42676,0,.714.714,0,1,1-1.42676,0Z" transform="translate(-27 -117)" fill="#231f20"/><path d="M132.749,330.7334l-2.00293-4.65381h-.02343l-2.00293,4.65381h-.83985l2.48242-5.5293h.74415l2.48242,5.5293Z" transform="translate(-27 -117)" fill="#231f20"/><path d="M137.1416,326.1875h-.02344l-1.35546.73193-.20411-.80371,1.70313-.91162h.89941V333H137.1416Z" transform="translate(-27 -117)" fill="#231f20"/><path d="M141.0918,332.37646a.70928.70928,0,0,1,.71972-.75585.75689.75689,0,1,1-.71972.75585Z" transform="translate(-27 -117)" fill="#231f20"/><path d="M148.67188,329.01807c0,2.65088-.9834,4.11377-2.71,4.11377-1.52343,0-2.55468-1.42725-2.5791-4.00586,0-2.61426,1.12793-4.05371,2.71094-4.05371C147.73633,325.07227,148.67188,326.53564,148.67188,329.01807Zm-4.2334.12011c0,2.02686.623,3.17823,1.583,3.17823,1.07911,0,1.59473-1.25928,1.59473-3.25,0-1.91895-.49121-3.17871-1.583-3.17871C145.11035,325.8877,144.43848,327.01514,144.43848,329.13818Z" transform="translate(-27 -117)" fill="#231f20"/><path d="M149.73145,332.37646a.70907.70907,0,0,1,.71875-.75585.75692.75692,0,1,1-.71875.75585Z" transform="translate(-27 -117)" fill="#231f20"/><path d="M157.31152,329.01807c0,2.65088-.9834,4.11377-2.71,4.11377-1.52344,0-2.55468-1.42725-2.5791-4.00586,0-2.61426,1.12793-4.05371,2.71094-4.05371C156.376,325.07227,157.31152,326.53564,157.31152,329.01807Zm-4.2334.12011c0,2.02686.624,3.17823,1.583,3.17823,1.0791,0,1.59473-1.25928,1.59473-3.25,0-1.91895-.49121-3.17871-1.583-3.17871C153.75,325.8877,153.07812,327.01514,153.07812,329.13818Z" transform="translate(-27 -117)" fill="#231f20"/><path d="M132.20605,142.4165H133.25v5.40918c0,2.14649-1.05566,2.80616-2.44727,2.80616a3.37776,3.37776,0,0,1-1.11523-.1919l.15625-.85156a2.48474,2.48474,0,0,0,.875.15625c.93555,0,1.4873-.41992,1.4873-2.00293Z" transform="translate(-27 -117)" fill="#231f20"/><path d="M134.70312,145.65479a.71458.71458,0,1,1,1.42676,0,.714.714,0,1,1-1.42676,0Zm0,4.23339a.71455.71455,0,1,1,1.42676,0,.714.714,0,1,1-1.42676,0Z" transform="translate(-27 -117)" fill="#231f20"/><path d="M144.69629,148.2334l-2.00293-4.65381h-.02344L140.667,148.2334h-.83984l2.48242-5.5293h.74414l2.48242,5.5293Z" transform="translate(-27 -117)" fill="#231f20"/><path d="M149.08887,143.6875h-.02344l-1.35547.73193-.2041-.80371,1.70312-.91162h.89942V150.5h-1.01953Z" transform="translate(-27 -117)" fill="#231f20"/><path d="M153.03906,149.87646a.70928.70928,0,0,1,.71973-.75585.75689.75689,0,1,1-.71973.75585Z" transform="translate(-27 -117)" fill="#231f20"/><path d="M160.61914,146.51807c0,2.65088-.9834,4.11377-2.71,4.11377-1.52344,0-2.55469-1.42725-2.5791-4.00586,0-2.61426,1.12793-4.05371,2.71094-4.05371C159.68359,142.57227,160.61914,144.03564,160.61914,146.51807Zm-4.2334.12011c0,2.02686.62305,3.17823,1.583,3.17823,1.0791,0,1.59473-1.25928,1.59473-3.25,0-1.91895-.49121-3.17871-1.583-3.17871C157.05762,143.3877,156.38574,144.51514,156.38574,146.63818Z" transform="translate(-27 -117)" fill="#231f20"/><path d="M161.67871,149.87646a.70908.70908,0,0,1,.71875-.75585.75692.75692,0,1,1-.71875.75585Z" transform="translate(-27 -117)" fill="#231f20"/><path d="M169.25879,146.51807c0,2.65088-.9834,4.11377-2.71,4.11377-1.52344,0-2.55469-1.42725-2.5791-4.00586,0-2.61426,1.12793-4.05371,2.71093-4.05371C168.32324,142.57227,169.25879,144.03564,169.25879,146.51807Zm-4.2334.12011c0,2.02686.624,3.17823,1.583,3.17823,1.0791,0,1.59472-1.25928,1.59472-3.25,0-1.91895-.49121-3.17871-1.583-3.17871C165.69727,143.3877,165.02539,144.51514,165.02539,146.63818Z" transform="translate(-27 -117)" fill="#231f20"/><path d="M194.11719,234.27783v-8.08349h1.13965l2.59082,4.08984a22.8658,22.8658,0,0,1,1.45117,2.62646l.02344-.0122c-.09571-1.0791-.11915-2.0625-.11915-3.32178v-3.38232h.9834v8.08349h-1.05566l-2.56641-4.10156a25.829,25.829,0,0,1-1.51172-2.69873l-.03613.01221c.06055,1.019.084,1.99072.084,3.334v3.4541Z" transform="translate(-27 -117)" fill="#231f20"/><path d="M201.72559,229.43262a.71457.71457,0,1,1,1.42675,0,.714.714,0,1,1-1.42675,0Zm0,4.2334a.71454.71454,0,1,1,1.42675,0,.714.714,0,1,1-1.42675,0Z" transform="translate(-27 -117)" fill="#231f20"/><path d="M211.71875,232.01123l-2.00293-4.65381h-.02344l-2.00293,4.65381h-.83984l2.48242-5.5293h.74414l2.48242,5.5293Z" transform="translate(-27 -117)" fill="#231f20"/><path d="M213.82129,234.27783v-.64746l.82715-.80371c1.99121-1.895,2.89062-2.90234,2.90234-4.07764a1.39091,1.39091,0,0,0-1.54687-1.52343,2.65359,2.65359,0,0,0-1.65528.65966l-.33593-.74365a3.4232,3.4232,0,0,1,2.207-.7915,2.1937,2.1937,0,0,1,2.38672,2.2666c0,1.43945-1.04395,2.603-2.68653,4.186l-.624.57569v.02392h3.502v.87549Z" transform="translate(-27 -117)" fill="#231f20"/><path d="M220.06152,233.6543a.70929.70929,0,0,1,.71973-.75586.75689.75689,0,1,1-.71973.75586Z" transform="translate(-27 -117)" fill="#231f20"/><path d="M227.6416,230.2959c0,2.65088-.9834,4.11377-2.71,4.11377-1.52344,0-2.55469-1.42725-2.5791-4.00586,0-2.61426,1.12793-4.05371,2.71094-4.05371C226.70605,226.3501,227.6416,227.81348,227.6416,230.2959Zm-4.2334.12012c0,2.02685.62305,3.17822,1.583,3.17822,1.0791,0,1.59473-1.25928,1.59473-3.25,0-1.919-.49121-3.17871-1.583-3.17871C224.08008,227.16553,223.4082,228.293,223.4082,230.416Z" transform="translate(-27 -117)" fill="#231f20"/><path d="M228.70117,233.6543a.70908.70908,0,0,1,.71875-.75586.75692.75692,0,1,1-.71875.75586Z" transform="translate(-27 -117)" fill="#231f20"/><path d="M236.28125,230.2959c0,2.65088-.9834,4.11377-2.71,4.11377-1.52344,0-2.55469-1.42725-2.5791-4.00586,0-2.61426,1.12793-4.05371,2.71093-4.05371C235.3457,226.3501,236.28125,227.81348,236.28125,230.2959Zm-4.2334.12012c0,2.02685.624,3.17822,1.583,3.17822,1.0791,0,1.59473-1.25928,1.59473-3.25,0-1.919-.49121-3.17871-1.583-3.17871C232.71973,227.16553,232.04785,228.293,232.04785,230.416Z" transform="translate(-27 -117)" fill="#231f20"/><path d="M194.11719,202.27783v-8.08349h1.13965l2.59082,4.08984a22.8658,22.8658,0,0,1,1.45117,2.62646l.02344-.0122c-.09571-1.0791-.11915-2.0625-.11915-3.32178v-3.38232h.9834v8.08349h-1.05566l-2.56641-4.10156a25.829,25.829,0,0,1-1.51172-2.69873l-.03613.01221c.06055,1.019.084,1.99072.084,3.334v3.4541Z" transform="translate(-27 -117)" fill="#231f20"/><path d="M201.72559,197.43262a.71457.71457,0,1,1,1.42675,0,.714.714,0,1,1-1.42675,0Zm0,4.2334a.71454.71454,0,1,1,1.42675,0,.714.714,0,1,1-1.42675,0Z" transform="translate(-27 -117)" fill="#231f20"/><path d="M211.71875,200.01123l-2.00293-4.65381h-.02344l-2.00293,4.65381h-.83984l2.48242-5.5293h.74414l2.48242,5.5293Z" transform="translate(-27 -117)" fill="#231f20"/><path d="M213.82129,202.27783v-.64746l.82715-.80371c1.99121-1.895,2.89062-2.90234,2.90234-4.07764a1.39091,1.39091,0,0,0-1.54687-1.52343,2.65359,2.65359,0,0,0-1.65528.65966l-.33593-.74365a3.4232,3.4232,0,0,1,2.207-.7915,2.1937,2.1937,0,0,1,2.38672,2.2666c0,1.43945-1.04395,2.603-2.68653,4.186l-.624.57569v.02392h3.502v.87549Z" transform="translate(-27 -117)" fill="#231f20"/><path d="M220.06152,201.6543a.70929.70929,0,0,1,.71973-.75586.75689.75689,0,1,1-.71973.75586Z" transform="translate(-27 -117)" fill="#231f20"/><path d="M227.6416,198.2959c0,2.65088-.9834,4.11377-2.71,4.11377-1.52344,0-2.55469-1.42725-2.5791-4.00586,0-2.61426,1.12793-4.05371,2.71094-4.05371C226.70605,194.3501,227.6416,195.81348,227.6416,198.2959Zm-4.2334.12012c0,2.02685.62305,3.17822,1.583,3.17822,1.0791,0,1.59473-1.25928,1.59473-3.25,0-1.919-.49121-3.17871-1.583-3.17871C224.08008,195.16553,223.4082,196.293,223.4082,198.416Z" transform="translate(-27 -117)" fill="#231f20"/><path d="M228.70117,201.6543a.70908.70908,0,0,1,.71875-.75586.75692.75692,0,1,1-.71875.75586Z" transform="translate(-27 -117)" fill="#231f20"/><path d="M236.28125,198.2959c0,2.65088-.9834,4.11377-2.71,4.11377-1.52344,0-2.55469-1.42725-2.5791-4.00586,0-2.61426,1.12793-4.05371,2.71093-4.05371C235.3457,194.3501,236.28125,195.81348,236.28125,198.2959Zm-4.2334.12012c0,2.02685.624,3.17822,1.583,3.17822,1.0791,0,1.59473-1.25928,1.59473-3.25,0-1.919-.49121-3.17871-1.583-3.17871C232.71973,195.16553,232.04785,196.293,232.04785,198.416Z" transform="translate(-27 -117)" fill="#231f20"/><path d="M376.27148,127.083h1.04395v7.208h3.4541v.87548h-4.498Z" transform="translate(-27 -117)" fill="#231f20"/><path d="M381.64844,130.32129a.71458.71458,0,1,1,1.42676,0,.714.714,0,1,1-1.42676,0Zm0,4.2334a.71455.71455,0,1,1,1.42676,0,.714.714,0,1,1-1.42676,0Z" transform="translate(-27 -117)" fill="#231f20"/><path d="M391.64062,132.8999l-2.00292-4.65381h-.02344l-2.00293,4.65381h-.83985l2.48243-5.52929h.74414l2.48242,5.52929Z" transform="translate(-27 -117)" fill="#231f20"/><path d="M396.03418,128.354h-.02344l-1.35547.73194-.2041-.80371,1.70313-.91162h.89941v7.79589h-1.01953Z" transform="translate(-27 -117)" fill="#231f20"/><path d="M399.98438,134.543a.70928.70928,0,0,1,.71972-.75586.75689.75689,0,1,1-.71972.75586Z" transform="translate(-27 -117)" fill="#231f20"/><path d="M407.56445,131.18457c0,2.65088-.9834,4.11377-2.71,4.11377-1.52344,0-2.55469-1.42725-2.5791-4.00586,0-2.61426,1.12793-4.05371,2.71094-4.05371C406.62891,127.23877,407.56445,128.70215,407.56445,131.18457Zm-4.2334.12012c0,2.02685.623,3.17822,1.583,3.17822,1.0791,0,1.59473-1.25928,1.59473-3.25,0-1.91895-.49121-3.17871-1.583-3.17871C404.00293,128.0542,403.33105,129.18164,403.33105,131.30469Z" transform="translate(-27 -117)" fill="#231f20"/><path d="M408.624,134.543a.70908.70908,0,0,1,.71875-.75586.75692.75692,0,1,1-.71875.75586Z" transform="translate(-27 -117)" fill="#231f20"/><path d="M416.2041,131.18457c0,2.65088-.9834,4.11377-2.71,4.11377-1.52344,0-2.55469-1.42725-2.5791-4.00586,0-2.61426,1.12793-4.05371,2.71094-4.05371C415.26855,127.23877,416.2041,128.70215,416.2041,131.18457Zm-4.2334.12012c0,2.02685.624,3.17822,1.583,3.17822,1.0791,0,1.59473-1.25928,1.59473-3.25,0-1.91895-.49121-3.17871-1.583-3.17871C412.64258,128.0542,411.9707,129.18164,411.9707,131.30469Z" transform="translate(-27 -117)" fill="#231f20"/><path d="M374.12109,311.30518H375.165v7.208h3.4541v.87549h-4.49805Z" transform="translate(-27 -117)" fill="#231f20"/><path d="M379.49805,314.54346a.71457.71457,0,1,1,1.42675,0,.714.714,0,1,1-1.42675,0Zm0,4.2334a.71454.71454,0,1,1,1.42675,0,.714.714,0,1,1-1.42675,0Z" transform="translate(-27 -117)" fill="#231f20"/><path d="M389.49023,317.12207l-2.00293-4.65381h-.02343l-2.00293,4.65381h-.83985l2.48243-5.5293h.74414l2.48242,5.5293Z" transform="translate(-27 -117)" fill="#231f20"/><path d="M393.88379,312.57617h-.02344l-1.35547.73194-.2041-.80372,1.70313-.91162h.89941v7.7959h-1.01953Z" transform="translate(-27 -117)" fill="#231f20"/><path d="M397.833,318.76514a.70928.70928,0,0,1,.71972-.75586.75689.75689,0,1,1-.71972.75586Z" transform="translate(-27 -117)" fill="#231f20"/><path d="M405.41406,315.40674c0,2.65088-.9834,4.11377-2.71,4.11377-1.52344,0-2.55469-1.42725-2.5791-4.00586,0-2.61426,1.12793-4.05371,2.71094-4.05371C404.47852,311.46094,405.41406,312.92432,405.41406,315.40674Zm-4.2334.12012c0,2.02685.624,3.17822,1.583,3.17822,1.0791,0,1.59473-1.25928,1.59473-3.25,0-1.91895-.49121-3.17871-1.583-3.17871C401.85254,312.27637,401.18066,313.40381,401.18066,315.52686Z" transform="translate(-27 -117)" fill="#231f20"/><path d="M406.47266,318.76514a.70907.70907,0,0,1,.71875-.75586.75692.75692,0,1,1-.71875.75586Z" transform="translate(-27 -117)" fill="#231f20"/><path d="M414.05371,315.40674c0,2.65088-.9834,4.11377-2.71,4.11377-1.52344,0-2.55469-1.42725-2.5791-4.00586,0-2.61426,1.12793-4.05371,2.71094-4.05371C413.11816,311.46094,414.05371,312.92432,414.05371,315.40674Zm-4.2334.12012c0,2.02685.623,3.17822,1.583,3.17822,1.0791,0,1.59473-1.25928,1.59473-3.25,0-1.91895-.49121-3.17871-1.583-3.17871C410.49219,312.27637,409.82031,313.40381,409.82031,315.52686Z" transform="translate(-27 -117)" fill="#231f20"/></svg>