<?xml version="1.0" encoding="UTF-8"?>
<!-- Copyright (c) Microsoft Corporation. All rights reserved. Licensed under the MIT license. -->
<svg version="1.1" viewBox="0 0 30.773132 21.97078" xmlns="http://www.w3.org/2000/svg"
  xmlns:cc="http://creativecommons.org/ns#" xmlns:dc="http://purl.org/dc/elements/1.1/"
  xmlns:rdf="http://www.w3.org/1999/02/22-rdf-syntax-ns#">
  <title>Rush Monodex</title>
  <metadata>
    <rdf:RDF>
      <cc:Work rdf:about="">
        <dc:format>image/svg+xml</dc:format>
        <dc:type rdf:resource="http://purl.org/dc/dcmitype/StillImage" />
        <dc:title>Rush Monodex</dc:title>
        <cc:license rdf:resource="https://opensource.org/licenses/MIT" />
        <dc:creator>
          <cc:Agent>
            <dc:title>https://github.com/octogonz</dc:title>
          </cc:Agent>
        </dc:creator>
        <dc:description>Copyright (c) Microsoft Corporation. All rights reserved. Licensed
          under the MIT license.</dc:description>
      </cc:Work>
    </rdf:RDF>
  </metadata>
  <path
    d="M26.602844,16.948319c1.206787-1.10614,2.414612-2.292969,3.571167-3.48291l-1.214478-1.228638c-.949341,1.011536-2.233093,2.382568-3.373962,3.403992-.709045-1.047363-1.249817-2.220947-1.390381-3.485229-.087585.067383-1.496704.655457-1.582275.699585.404236,1.585144.934265,2.923706,1.505249,4.054749-.857239.709534-1.834595,1.447754-2.655396,1.807007-4.0578,1.775879.083496-6.477417,1.281006-8.255371,1.107788-1.955994,3.399414-4.660645,4.767456-6.344727.57251-.862793.362549-.901001-.228821-2.001892-.797363-1.546265-1.50293-.865967-2.408569-.031433-3.520752,3.09729-7.02478,7.050964-10.264099,10.923706,1.926819-3.860779,3.963318-6.730591,4.888977-10.261902-.694031-6.508362-9.754944,6.490662-11.007324,8.228455,1.007202-2.37915,1.869507-4.117188,2.587341-6.171265.642883-1.574036.311279-2.892395-.486023-4.271973-.804077-1.915222-6.579041,1.891174-8.305481,2.95575.175598-.737.620056-.988159,1.229431-1.576355.127808-.128601.177185-.28241,0-.299438-.085815,0-.540833.346741-1.365112,1.040527C.310608,3.896073.208862,5.617631,0,7.521744c.118408,1.777344,3.537415-1.104614,4.681702-1.718506,1.180298-.60437,4.782593-3.731995,4.896301-1.733704-.377136,2.824829-2.435181,5.674683-3.959961,8.322876-.810059,1.292603-1.844055,2.863647-3.102173,4.713196-.391785.787231-.047363,1.367859.264465,2.419617.976807,2.508423,1.86261.430786,2.780518-1.221619,1.601074-2.763794,3.137817-5.19635,4.610413-7.298279,1.158752-1.869934,7.391785-9.812683,5.689209-4.555664-1.53064,3.549866-4.48584,7.495056-6.361267,10.687561-.743652.871094-.227783,5.255737,1.164978,3.78302,3.640015-4.788208,7.701721-11.003479,11.993835-14.044922.60199.250061-.133118.798157-.972168,1.970337-1.821716,2.372375-3.354553,4.32959-4.33844,6.88855-1.194275,2.611206-.603333,7.440002,2.887451,5.934753,1.433167-.686523,3.057312-1.859009,4.728699-3.272156,1.621765,2.541687,3.267151,3.573975,3.267151,3.573975l2.542419-1.564148s-2.285767-1.334106-4.170288-3.458313Z"
    fill="#8e5199" />
</svg>